<?xml version="1.0" encoding="utf-8"?>
<!-- Generator: Adobe Illustrator 22.0.0, SVG Export Plug-In . SVG Version: 6.00 Build 0)  -->
<svg version="1.1" id="Layer_1" xmlns="http://www.w3.org/2000/svg" xmlns:xlink="http://www.w3.org/1999/xlink" x="0px" y="0px"
	 viewBox="0 0 152 152" style="enable-background:new 0 0 152 152;" xml:space="preserve">
<style type="text/css">
	.st0{fill:#153355;}
</style>
<g>
	<g>
		<path class="st0" d="M134.5,2.3H17.5c-3.3,0-5.7,3.3-4.5,6.4l12.1,32.2c0.7,1.9,2.5,3.1,4.5,3.1h3.7c-4.4,0-8,3.6-8,8v53.4
			c0,4.4,3.6,8,8,8h16.1c0.6-4.7,5.2-8.1,10.2-6.7c0.9-1.7,2.4-3,4.3-3.7c0-1.3,0.2-2.6,0-3.2c0-1.8,1.4-3.2,3.2-3.2h10.2V92H54.2
			c-3.7,0-2-5.5-2.4-8.7c0-1.3,1.1-2.4,2.4-2.4h27.5c0.9-0.5,1.9-0.8,3-0.8c0.2,0,0.4,0,0.6,0c1.3,0,2.5,0.3,3.6,0.9h8.8
			c1.3,0,2.4,1.1,2.4,2.4v6.3c0,1.3-1.1,2.4-2.4,2.4h-4.4v21.4h25.4c4.4,0,8-3.6,8-8V52c0-4.4-3.6-8-8-8h3.7c2,0,3.8-1.2,4.5-3.1
			L139,8.8C140.2,5.7,137.9,2.3,134.5,2.3z M44.4,52.4v6.4c0,1.3-1.1,2.4-2.4,2.4h-6.4c-1.3,0-2.4-1.1-2.4-2.4v-6.4
			c0-1.3,1.1-2.4,2.4-2.4H42C43.3,50,44.4,51.1,44.4,52.4z M44.4,89.6c0,1.3-1.1,2.4-2.4,2.4h-6.4c-1.3,0-2.4-1.1-2.4-2.4v-6.3
			c0-1.3,1.1-2.4,2.4-2.4H42c1.3,0,2.4,1.1,2.4,2.4V89.6z M46.1,74.2c0,1.3-1.1,2.4-2.4,2.4h-8.1c-1.3,0-2.4-1.1-2.4-2.4v-6.4
			c0-1.3,1.1-2.4,2.4-2.4h8.1c1.3,0,2.4,1.1,2.4,2.4V74.2z M63,74.2c0,1.3-1.1,2.4-2.4,2.4h-6.4c-1.3,0-2.4-1.1-2.4-2.4v-6.4
			c0-1.3,1.1-2.4,2.4-2.4h6.4c1.3,0,2.4,1.1,2.4,2.4V74.2z M63,58.8c0,1.3-1.1,2.4-2.4,2.4h-6.4c-1.3,0-2.4-1.1-2.4-2.4v-6.4
			c0-1.3,1.1-2.4,2.4-2.4h6.4c1.3,0,2.4,1.1,2.4,2.4V58.8z M81.6,74.2c0,1.3-1.1,2.4-2.4,2.4h-6.4c-1.3,0-2.4-1.1-2.4-2.4v-6.4
			c0-1.3,1.1-2.4,2.4-2.4h6.4c1.3,0,2.4,1.1,2.4,2.4V74.2z M81.6,58.8c0,1.3-1.1,2.4-2.4,2.4h-6.4c-1.3,0-2.4-1.1-2.4-2.4v-6.4
			c0-1.3,1.1-2.4,2.4-2.4h6.4c1.3,0,2.4,1.1,2.4,2.4V58.8z M100.2,74.2c0,1.3-1.1,2.4-2.4,2.4h-6.4c-1.3,0-2.4-1.1-2.4-2.4v-6.4
			c0-1.3,1.1-2.4,2.4-2.4h6.4c1.3,0,2.4,1.1,2.4,2.4V74.2z M100.2,58.8c0,1.3-1.1,2.4-2.4,2.4h-6.4c-1.3,0-2.4-1.1-2.4-2.4v-6.4
			c0-1.3,1.1-2.4,2.4-2.4h6.4c1.3,0,2.4,1.1,2.4,2.4V58.8z M118.7,89.6c0,1.3-1.1,2.4-2.4,2.4H110c-1.3,0-2.4-1.1-2.4-2.4v-6.3
			c0-1.3,1.1-2.4,2.4-2.4h6.4c1.3,0,2.4,1.1,2.4,2.4V89.6z M118.7,74.2c0,1.3-1.1,2.4-2.4,2.4h-8.1c-1.3,0-2.4-1.1-2.4-2.4v-6.4
			c0-1.3,1.1-2.4,2.4-2.4h8.1c1.3,0,2.4,1.1,2.4,2.4V74.2z M118.7,58.8c0,1.3-1.1,2.4-2.4,2.4H110c-1.3,0-2.4-1.1-2.4-2.4v-6.4
			c0-1.3,1.1-2.4,2.4-2.4h6.4c1.3,0,2.4,1.1,2.4,2.4V58.8z M130.9,11.4l-10.3,26.7c-0.2,0.7-0.8,1.1-1.5,1.1H32.9
			c-0.7,0-1.3-0.4-1.5-1.1L21.1,11.4c-0.3-1,0.4-2,1.5-2h106.7C130.4,9.4,131.2,10.4,130.9,11.4z"/>
		<g>
			<path class="st0" d="M108.2,124.9c-3.2,2.5-2.9,5.6-5,9.2c-3.9,6.6-9.9,11.7-13.4,14.3c-9.9,1.8-20.7,1.7-31-0.7
				c-3.3-3.7-6.2-10.3-6.2-18.2v-15c0-6.5,9.4-6.3,9.4-0.2v-3.9c0-2.6,2.1-4.7,4.7-4.7c2.6,0,4.7,2.2,4.7,4.7v-2.5
				c0-6.4,9.3-6.2,9.3-0.2V88.2c0-2.5,1.9-4.6,4.3-4.8c1.4-0.1,2.7,0.4,3.6,1.4c0.8,0.8,1.4,2,1.4,3.3v39.8c0,0.8,0.6,1.6,1.4,1.7
				c0.9,0,1.5,0,2.1-0.7c6.3-9.1,12.1-9.7,14.4-9.6c0.8,0.1,1.5,0.4,2,0.9C111.8,122.3,108.2,124.9,108.2,124.9z"/>
		</g>
	</g>
</g>
</svg>
