<?xml version="1.0" encoding="utf-8"?>
<!-- Generator: Adobe Illustrator 22.0.0, SVG Export Plug-In . SVG Version: 6.00 Build 0)  -->
<svg version="1.1" id="Layer_1" xmlns="http://www.w3.org/2000/svg" xmlns:xlink="http://www.w3.org/1999/xlink" x="0px" y="0px"
	 viewBox="0 0 152 152" style="enable-background:new 0 0 152 152;" xml:space="preserve">
<style type="text/css">
	.st0{fill:#153355;}
</style>
<g>
	<path class="st0" d="M128.7,25.7L106.8,3.9c-0.4-0.4-1-0.7-1.7-0.7H34.7c-6.7,0-12.1,5.4-12.1,12.1v104.4c0,6.7,5.4,12.1,12.1,12.1
		h26.7v17h4.9v-17h36.4c1.3,0,2.4-1.1,2.4-2.4v-12.1c0-4.5,3.1-8.3,7.3-9.4v21.5v19.4h4.9v-17c6.7,0,12.1-5.4,12.1-12.1V27.5
		C129.4,26.8,129.1,26.2,128.7,25.7z M107.6,11.5L121.1,25h-13.6V11.5z M124.5,119.7c0,4-3.3,7.3-7.3,7.3v-21.8
		c0-1.3-1.1-2.4-2.4-2.4c-8,0-14.6,6.5-14.6,14.6v9.7H34.7c-4,0-7.3-3.3-7.3-7.3V15.3c0-4,3.3-7.3,7.3-7.3h68v19.4
		c0,1.3,1.1,2.4,2.4,2.4h19.4V119.7z"/>
	<path class="st0" d="M46.9,56.6h14.6h9.7c1.3,0,2.4-1.1,2.4-2.4v-34c0-1.3-1.1-2.4-2.4-2.4h-34c-1.3,0-2.4,1.1-2.4,2.4v34
		c0,1.3,1.1,2.4,2.4,2.4H46.9z M51.7,34.7c0-1.3,1.1-2.4,2.4-2.4c1.3,0,2.4,1.1,2.4,2.4c0,1.3-1.1,2.4-2.4,2.4
		C52.8,37.2,51.7,36.1,51.7,34.7z M49.3,51.7v-4.9c0-2.7,2.2-4.9,4.9-4.9s4.9,2.2,4.9,4.9v4.9H49.3z M39.6,22.6h29.1v29.1h-4.9v-4.9
		c0-3.2-1.6-6-3.9-7.8c0.9-1.2,1.5-2.7,1.5-4.4c0-4-3.3-7.3-7.3-7.3s-7.3,3.3-7.3,7.3c0,1.7,0.6,3.2,1.5,4.4
		c-2.4,1.8-3.9,4.6-3.9,7.8v4.9h-4.9V22.6z"/>
	<rect x="78.4" y="25" class="st0" width="12.1" height="4.9"/>
	<rect x="78.4" y="34.7" class="st0" width="14.6" height="4.9"/>
	<rect x="97.8" y="34.7" class="st0" width="12.1" height="4.9"/>
	<rect x="78.4" y="44.5" class="st0" width="31.5" height="4.9"/>
	<rect x="46.9" y="63.9" class="st0" width="19.4" height="4.9"/>
	<rect x="71.1" y="63.9" class="st0" width="14.6" height="4.9"/>
	<rect x="90.6" y="63.9" class="st0" width="24.3" height="4.9"/>
	<rect x="37.2" y="73.6" class="st0" width="19.4" height="4.9"/>
	<rect x="61.4" y="73.6" class="st0" width="38.8" height="4.9"/>
	<rect x="105.1" y="73.6" class="st0" width="9.7" height="4.9"/>
	<rect x="37.2" y="83.3" class="st0" width="9.7" height="4.9"/>
	<rect x="51.7" y="83.3" class="st0" width="29.1" height="4.9"/>
	<rect x="85.7" y="83.3" class="st0" width="29.1" height="4.9"/>
	<rect x="37.2" y="93" class="st0" width="9.7" height="4.9"/>
	<rect x="51.7" y="93" class="st0" width="29.1" height="4.9"/>
	<rect x="85.7" y="93" class="st0" width="29.1" height="4.9"/>
	<rect x="37.2" y="102.7" class="st0" width="21.8" height="4.9"/>
	<rect x="63.9" y="102.7" class="st0" width="34" height="4.9"/>
	<rect x="37.2" y="112.4" class="st0" width="9.7" height="4.9"/>
	<rect x="51.7" y="112.4" class="st0" width="41.3" height="4.9"/>
</g>
</svg>
