<?xml version="1.0" encoding="utf-8"?>
<!-- Generator: Adobe Illustrator 22.0.0, SVG Export Plug-In . SVG Version: 6.00 Build 0)  -->
<svg version="1.1" id="Layer_1" xmlns="http://www.w3.org/2000/svg" xmlns:xlink="http://www.w3.org/1999/xlink" x="0px" y="0px"
	 viewBox="0 0 152 152" style="enable-background:new 0 0 152 152;" xml:space="preserve">
<style type="text/css">
	.st0{fill:#153355;}
</style>
<g>
	<path class="st0" d="M17.6,136l60.2,11.3l0,0c0.1,0,0.3,0,0.4,0l0,0c0.1,0,0.3,0,0.4,0c0,0,0,0,0,0l55.7-11.4
		c1-0.2,1.8-1.1,1.8-2.2V80.5l2.5-0.3c1.1-0.1,1.9-1.1,1.9-2.2V61c-0.7,1-1.6,1.8-2.7,2.3c-0.6,0.3-1.1,0.5-1.7,0.8V76L115,78.8V73
		c-0.8-0.8-1.3-1.8-1.6-2.9c-0.7-1.8-1.7-3.4-2.8-4.9v71l-8.4,1.7V58.7c0-0.4-0.1-0.8-0.3-1.2l0.8-0.1c-1.4-0.9-2.8-1.6-4.4-2.1
		c-1.9-0.6-3.9-0.9-5.9-1.1l-14.1,1.9l-16.4-2.1c-2.8,0.1-5.5,0.5-8.2,1.2c-2,0.7-3.9,1.6-5.6,2.9l0,78.9l-8.4-1.6V67.8
		c-0.5,0.7-0.8,1.5-1.1,2.3c-0.5,1.8-1.7,3.4-3.4,4.2v4.1l-19.5-2.4V64.2c-0.6-0.3-1.1-0.6-1.7-0.8C13,62.8,12,62,11.4,61v16.9
		c0,1.1,0.8,2.1,2,2.2l2.5,0.3v53.4C15.8,134.9,16.6,135.8,17.6,136z M115,83.3l16.8-2.3v50.8l-16.8,3.4L115,83.3z M80.5,60.4
		l17.3-2.3c-0.1,0.2-0.1,0.4-0.1,0.6v22.4l-17.2,2.3V60.4z M80.5,88l17.2-2.3v53.2l-17.2,3.5V88z M52.5,57.5L76,60.5v23l-23.5-2.9
		L52.5,57.5z M52.5,85L76,88v54.4L52.5,138L52.5,85z M20.3,81l15,1.9v51.9l-15-2.8V81z"/>
	<path class="st0" d="M19.4,49.5c-0.3,0.4-2,2.7-2.4,3.4c-2.5,3.6-2.6,3.8-2.4,4.9c0.2,0.7,0.6,1.2,1.3,1.5c2.8,1.2,5.4,2.8,7.8,4.6
		c1.3,1,2.6,2.2,3.8,3.3c1,1,2.1,2,3.3,2.9c1,0.8,2.4,0.6,3.1-0.3c0.2-0.2,0.4-0.5,0.4-0.9c0.9-3.3,5-8.4,6.4-9.9
		c3.1-3.7,7.2-6.4,11.7-7.9c4.2-1.3,8.9-1.4,13.5-1.5l0.6,0c1.7,1.9,4.1,3.1,6.7,3h6.3c2.6,0,5-1.1,6.7-3c4.5,0.1,9.1,0.2,13.3,1.5
		c4.6,1.5,8.6,4.3,11.7,7.9c1.4,1.5,5.5,6.6,6.4,9.9c0.3,1.2,1.5,1.9,2.7,1.6c0.3-0.1,0.6-0.2,0.9-0.4c1.2-0.9,2.2-2,3.3-2.9
		c1.2-1.2,2.5-2.3,3.8-3.3c2.4-1.8,5-3.3,7.8-4.6c0.6-0.3,1.1-0.9,1.3-1.5c0.3-1.1,0.1-1.3-2.4-4.9c-0.4-0.6-2.1-3-2.4-3.4
		c-1.7-2.1-3.6-3.9-5.8-5.5c2.6-1.8,4.7-4.3,5.9-7.2c0.3-0.7,0.2-1.6-0.3-2.2L112.6,9.3c-0.3-1.3-1.1-2.4-2.3-3.1
		c-5.1-3.2-11.8-0.7-16.3,3.2c-4.3,4.1-7.5,9.2-9.2,14.8c-0.4,1.3-0.8,2.7-1.2,4.2c-0.8-0.2-1.7-0.3-2.5-0.3H70.9
		c-0.8,0-1.7,0.1-2.5,0.4c-0.4-1.5-0.8-2.9-1.3-4.2c-1.8-5.6-4.9-10.7-9.2-14.8c-4.4-3.9-11.2-6.5-16.3-3.2c-1.1,0.7-2,1.8-2.3,3.1
		L19.6,34.7c-0.5,0.6-0.6,1.5-0.3,2.2c1.3,2.8,3.4,5.3,5.9,7.2C23,45.6,21.1,47.4,19.4,49.5z M129.1,52.3c0.2,0.3,1.7,2.4,2.8,4
		c-2.2,1.1-4.3,2.5-6.3,4c-1.5,1.1-2.9,2.4-4.2,3.7c-0.2,0.2-0.5,0.5-0.7,0.7c-1.7-3.1-3.7-5.9-6.1-8.6c-3.7-4.3-8.4-7.4-13.7-9.2
		c-4.2-1.2-8.6-1.7-13-1.7l0.1-0.7c0.5-0.3,1-0.6,1.6-0.9c4.6-2.4,9.5-0.7,14.7,1c1.8,0.6,3.7,1.2,5.6,1.7c2.1,0.4,4.2,0.4,6.2,0
		c1.3-0.2,2.6-0.3,4-0.2C123.8,46.4,127.3,50.2,129.1,52.3z M111.3,14.8L128,36.3c-1.5,2.3-3.5,4.2-5.9,5.5
		c-0.5-0.1-0.9-0.2-1.4-0.3c-1.7-0.1-3.4-0.1-5.1,0.2c-1.5,0.3-3.1,0.4-4.6,0.1c-1.7-0.4-3.4-1-5.2-1.6c-5.2-1.7-11-3.6-16.8-1.3
		l0.4-2.8c0.1-0.6,0.1-1.2,0-1.8C97.7,30.8,107.7,20.6,111.3,14.8z M89.1,25.5c1.5-4.9,4.3-9.3,8-12.8c2.2-2,5.3-3.6,8-3.6
		c1,0,2,0.3,2.9,0.8c0.3,0.2,0.6,0.4,0.2,1.3c-2,4.7-12.9,15.8-20.5,19.2C88.1,28.6,88.6,27,89.1,25.5z M67.6,34
		c0.8-1,2.1-1.5,3.3-1.4h10.1c1.2,0,2.4,0.4,3.3,1.3c0.4,0.5,0.6,1.1,0.6,1.7l-1.5,10c-0.2,1.4-1.9,2.5-3.8,2.5h-6.3
		c-1.9,0-3.5-1-3.8-2.4l-2.3-10C67,35.1,67.2,34.4,67.6,34z M44.1,9.9c0.9-0.5,1.9-0.8,2.9-0.8c2.7,0,5.8,1.6,8,3.6
		c3.7,3.5,6.4,8,8,12.8c0.5,1.5,0.9,3.1,1.4,4.9C56.7,27,45.8,15.8,43.8,11.2C43.5,10.3,43.8,10.1,44.1,9.9z M24,36.3l16.7-21.5
		c3.6,5.8,13.6,16,21.9,19.7c-0.1,0.8-0.1,1.5,0.1,2.3l0.5,2.4c-5.9-2.5-11.8-0.5-17.1,1.2c-1.8,0.6-3.5,1.2-5.2,1.6
		c-1.5,0.2-3.1,0.2-4.6-0.1c-1.7-0.3-3.4-0.4-5.1-0.2c-0.5,0.1-0.9,0.2-1.4,0.3C27.5,40.5,25.5,38.6,24,36.3z M31.9,46
		c1.3-0.1,2.7,0,4,0.2c2,0.4,4.2,0.4,6.2,0c1.9-0.4,3.8-1.1,5.6-1.7c5.2-1.7,10.1-3.3,14.7-1c0.8,0.4,1.6,0.8,2.3,1.3l0,0.2
		c-4.6-0.1-9.2,0.5-13.6,1.7c-5.3,1.8-10.1,5-13.7,9.2c-2.3,2.6-4.4,5.5-6.1,8.6c-0.2-0.2-0.5-0.5-0.7-0.7c-1.3-1.3-2.7-2.5-4.2-3.7
		c-2-1.5-4.1-2.8-6.3-4c1.1-1.6,2.6-3.7,2.8-4C24.7,50.2,28.2,46.4,31.9,46z"/>
</g>
</svg>
