<?xml version="1.0" encoding="utf-8"?>
<!-- Generator: Adobe Illustrator 22.0.0, SVG Export Plug-In . SVG Version: 6.00 Build 0)  -->
<svg version="1.1" id="Layer_1" xmlns="http://www.w3.org/2000/svg" xmlns:xlink="http://www.w3.org/1999/xlink" x="0px" y="0px"
	 viewBox="0 0 152 152" style="enable-background:new 0 0 152 152;" xml:space="preserve">
<style type="text/css">
	.st0{fill:#1a2f4a;}
</style>
<title>All</title>
<path class="st0" d="M76.1,15.3c33.5,0,60.6,27.2,60.6,60.7c0,33.5-27.2,60.6-60.7,60.6c-33.5,0-60.6-27.2-60.6-60.7
	c0,0,0-0.1,0-0.1C15.4,42.4,42.6,15.3,76.1,15.3z M71.4,61.4L71.4,61.4c-3.6,0-7.2,0-10.8,0c-0.8,0-1.6,0.1-2.3,0.3
	c-0.9,0.2-1.6,0.9-1.8,1.9c-0.3,1,0.3,2.1,1.2,2.5c1.2,0.5,2.4,0.9,3.7,1c3.4,0.2,4.7,1.6,4.2,5.1c-0.9,6.5-2.2,12.9-3.3,19.4
	c-0.7,4.4-1.4,8.7-2.1,13.1c-1,5.9,4.5,11.4,8.9,12.1c2.6,0.4,5.2,0.5,7.8,0.5c5.6,0,10.9-2.3,14.7-6.4c0.7-0.6,1.2-1.4,1.5-2.3
	c0.1-0.8,0-1.6-0.5-2.2c-0.6-0.4-1.3-0.4-1.9-0.2c-1,0.3-1.9,1-2.9,1.4c-1.1,0.5-2.3,0.9-3.5,1.2c-1.9,0.5-3.7-0.7-4.2-2.5
	c0-0.2-0.1-0.4-0.1-0.5c-0.2-1.1-0.2-2.3-0.1-3.4c0.4-2.8,1-5.6,1.5-8.4c1.4-7.6,2.8-15.2,4.2-22.8c0.4-2.1,1-4.1,0.6-6.3
	c-0.1-2-1.9-3.5-3.9-3.4c0,0,0,0-0.1,0C78.7,61.4,75.1,61.4,71.4,61.4z M78,34.5c-6.1-0.3-11.2,4.4-11.5,10.5
	c-0.3,6.1,4.4,11.2,10.5,11.5c6.1,0.3,11.2-4.4,11.5-10.5c0-0.1,0-0.2,0-0.2C88.7,39.7,84,34.7,78,34.5L78,34.5z"/>
</svg>
