<?xml version="1.0" encoding="utf-8"?>
<!-- Generator: Adobe Illustrator 22.0.0, SVG Export Plug-In . SVG Version: 6.00 Build 0)  -->
<svg version="1.1" id="Layer_1" xmlns="http://www.w3.org/2000/svg" xmlns:xlink="http://www.w3.org/1999/xlink" x="0px" y="0px"
	 viewBox="0 0 152 152" style="enable-background:new 0 0 152 152;" xml:space="preserve">
<style type="text/css">
	.st0{fill:#1a2f4a;}
</style>
<path class="st0" d="M145.6,102.4H136V76c0-0.6-0.3-1.2-0.7-1.7l-14.4-14.4l-3.4,3.4L131.2,77v25.4H112v-36c0-11-8.3-20.2-19-21.4
	c4.3-4.3,7-10.3,7-17c0-13.2-10.8-24-24-24S52,14.8,52,28c0,6.8,2.9,12.9,7.4,17.3c-9.7,2.1-17,10.8-17,21.1v36H23.2V77l13.7-13.7
	l-3.4-3.4L19.1,74.3c-0.5,0.4-0.7,1.1-0.7,1.7v26.4h-12c-1.3,0-2.4,1.1-2.4,2.4v28.8c0,1.3,1.1,2.4,2.4,2.4h40.8v9.6
	c0,1.3,1.1,2.4,2.4,2.4h52.8c1.3,0,2.4-1.1,2.4-2.4V136h40.8c1.3,0,2.4-1.1,2.4-2.4v-28.8C148,103.5,146.9,102.4,145.6,102.4z
	 M65.6,49.6c0.1,0,0.2,0.1,0.3,0.1c0.6,0.3,1.2,0.5,1.9,0.8c0.2,0.1,0.4,0.1,0.5,0.2c0.7,0.2,1.4,0.4,2.1,0.6c0.1,0,0.3,0.1,0.4,0.1
	c1.7,0.4,3.4,0.6,5.2,0.6c1.8,0,3.5-0.2,5.2-0.6c0.1,0,0.3-0.1,0.4-0.1c0.7-0.2,1.4-0.4,2.1-0.6c0.2-0.1,0.4-0.1,0.5-0.2
	c0.6-0.2,1.3-0.5,1.9-0.8c0.1,0,0.2-0.1,0.3-0.1h0.1L76,70.6L65.6,49.6L65.6,49.6z M56.8,28c0-10.6,8.6-19.2,19.2-19.2
	S95.2,17.4,95.2,28c0,7.5-4.3,14-10.6,17.1c-0.6,0.3-1.2,0.6-1.8,0.8c-0.1,0-0.2,0.1-0.4,0.1c-0.6,0.2-1.2,0.4-1.8,0.5
	c-0.1,0-0.2,0.1-0.3,0.1c-0.7,0.2-1.4,0.3-2,0.4c0,0-0.1,0-0.1,0c-1.5,0.2-3,0.2-4.5,0c0,0-0.1,0-0.1,0c-0.7-0.1-1.4-0.2-2-0.4
	c-0.1,0-0.2-0.1-0.3-0.1c-0.6-0.2-1.2-0.3-1.8-0.5c-0.1,0-0.2-0.1-0.4-0.1c-0.6-0.2-1.2-0.5-1.8-0.8C61.1,42,56.8,35.5,56.8,28z
	 M47.2,66.4c0-8,5.6-14.7,13.1-16.4l13.5,27.1c0.4,0.8,1.2,1.3,2.1,1.3c0.9,0,1.7-0.5,2.1-1.3l13.7-27.4c8.6,0.7,15.4,8,15.4,16.7
	v36h-60V66.4z M143.2,131.2h-40.8c-1.3,0-2.4,1.1-2.4,2.4v9.6H52v-9.6c0-1.3-1.1-2.4-2.4-2.4H8.8v-24h36h64.8h33.6V131.2z"/>
</svg>
