<?xml version="1.0" encoding="utf-8"?>
<!-- Generator: Adobe Illustrator 22.0.0, SVG Export Plug-In . SVG Version: 6.00 Build 0)  -->
<svg version="1.1" id="Layer_1" xmlns="http://www.w3.org/2000/svg" xmlns:xlink="http://www.w3.org/1999/xlink" x="0px" y="0px"
	 viewBox="0 0 152 152" style="enable-background:new 0 0 152 152;" xml:space="preserve">
<style type="text/css">
	.st0{fill:#1a2f4a;}
</style>
<title>lottery-bingo-casino roulette-gambling-luck-gaming-casino-wheel-balls</title>
<g>
	<path class="st0" d="M29,116.5L11.7,99.2c-0.4-0.4-0.6-1-0.6-1.5v-52c0-0.6,0.2-1.1,0.6-1.5L48.5,7.4c0.4-0.4,1-0.6,1.5-0.6h52
		c0.6,0,1.1,0.2,1.5,0.6l36.8,36.8c0.4,0.4,0.6,1,0.6,1.5v52c0,0.6-0.2,1.1-0.6,1.5L123,116.5l-3.1-3.1l16.7-16.6V46.6l-35.5-35.5
		H50.9L15.4,46.6v50.2l16.7,16.7L29,116.5z"/>
	<path class="st0" d="M102,136.6H50c-0.6,0-1.1-0.2-1.5-0.6l-6.5-6.5l3.1-3.1l5.9,5.9h50.2l5.9-5.9l3.1,3.1l-6.5,6.5
		C103.1,136.4,102.6,136.6,102,136.6z"/>
	<path class="st0" d="M143.1,145.3h-34.6c-1.2,0-2.2-1-2.2-2.2v-6.5c0-1.2,1-2.2,2.2-2.2h8.8l-37-52.8c-2.7,1.2-5.9,1.2-8.6,0
		l-37,52.8h8.8c1.2,0,2.2,1,2.2,2.2v6.5c0,1.2-1,2.2-2.2,2.2H8.9c-1.2,0-2.2-1-2.2-2.2v-6.5c0-1.2,1-2.2,2.2-2.2h11.8l44.7-65
		c1.2-5.8,6.9-9.6,12.8-8.4c4.2,0.9,7.5,4.2,8.4,8.4l44.7,65h11.8c1.2,0,2.2,1,2.2,2.2v6.5C145.3,144.3,144.3,145.3,143.1,145.3z
		 M110.6,140.9h30.3v-2.2h-10.8c-0.7,0-1.4-0.4-1.8-0.9L82.7,71.5c-0.2-0.3-0.3-0.6-0.4-0.9c-0.5-3.5-3.8-5.9-7.4-5.4
		c-2.8,0.4-5,2.6-5.4,5.4c-0.1,0.3-0.2,0.6-0.4,0.9l-45.6,66.3c-0.4,0.6-1.1,0.9-1.8,0.9H11.1v2.2h30.3v-2.2H30.6
		c-1.2,0-2.2-1-2.2-2.2c0-0.4,0.1-0.9,0.4-1.2l40.5-57.8c0.7-1,2-1.2,3-0.5c2.2,1.5,5.2,1.5,7.4,0c1-0.7,2.3-0.4,3,0.5l40.5,57.8
		c0.7,1,0.4,2.3-0.5,3c-0.4,0.3-0.8,0.4-1.2,0.4h-10.8V140.9z"/>
	<rect x="59.1" y="6.7" transform="matrix(0.924 -0.3823 0.3823 0.924 -9.0984 26.1408)" class="st0" width="4.3" height="58.5"/>
	<rect x="68.7" y="44.6" transform="matrix(0.3824 -0.924 0.924 0.3824 10.0685 108.6336)" class="st0" width="35.1" height="4.3"/>
	
		<rect x="93.4" y="21.9" transform="matrix(0.3828 -0.9238 0.9238 0.3828 36.8345 103.2621)" class="st0" width="4.7" height="4.3"/>
	<rect x="95.5" y="11.1" transform="matrix(0.3824 -0.924 0.924 0.3824 49.6344 100.7414)" class="st0" width="9.4" height="4.3"/>
	<rect x="39.2" y="26.9" transform="matrix(0.3824 -0.924 0.924 0.3824 -27.4315 73.6555)" class="st0" width="4.3" height="60.9"/>
	
		<rect x="80.2" y="55.2" transform="matrix(0.9238 -0.3828 0.3828 0.9238 -13.5252 46.7171)" class="st0" width="60.9" height="4.3"/>
	
		<rect x="11.2" y="85.2" transform="matrix(0.9238 -0.3828 0.3828 0.9238 -30.5317 21.2489)" class="st0" width="53.9" height="4.3"/>
	
		<rect x="111.7" y="60.4" transform="matrix(0.3823 -0.924 0.924 0.3823 -10.3724 159.1675)" class="st0" width="4.3" height="53.9"/>
	<path class="st0" d="M56.5,130.1c-4.8,0-8.7-3.9-8.7-8.7s3.9-8.7,8.7-8.7s8.7,3.9,8.7,8.7S61.3,130.1,56.5,130.1z M56.5,117.1
		c-2.4,0-4.3,1.9-4.3,4.3s1.9,4.3,4.3,4.3s4.3-1.9,4.3-4.3S58.9,117.1,56.5,117.1z"/>
	<path class="st0" d="M65.2,119.3c-4.8,0-8.7-3.9-8.7-8.7s3.9-8.7,8.7-8.7s8.7,3.9,8.7,8.7S70,119.3,65.2,119.3z M65.2,106.3
		c-2.4,0-4.3,1.9-4.3,4.3s1.9,4.3,4.3,4.3s4.3-1.9,4.3-4.3S67.6,106.3,65.2,106.3z"/>
	<path class="st0" d="M93.3,132.3c-4.8,0-8.7-3.9-8.7-8.7s3.9-8.7,8.7-8.7s8.7,3.9,8.7,8.7S98.1,132.3,93.3,132.3z M93.3,119.3
		c-2.4,0-4.3,1.9-4.3,4.3s1.9,4.3,4.3,4.3s4.3-1.9,4.3-4.3S95.7,119.3,93.3,119.3z"/>
	<path class="st0" d="M78.2,132.3c-4.8,0-8.7-3.9-8.7-8.7s3.9-8.7,8.7-8.7s8.7,3.9,8.7,8.7S82.9,132.3,78.2,132.3z M78.2,119.3
		c-2.4,0-4.3,1.9-4.3,4.3s1.9,4.3,4.3,4.3s4.3-1.9,4.3-4.3S80.6,119.3,78.2,119.3z"/>
	<path class="st0" d="M82.5,119.3c-4.8,0-8.7-3.9-8.7-8.7s3.9-8.7,8.7-8.7s8.7,3.9,8.7,8.7S87.3,119.3,82.5,119.3z M82.5,106.3
		c-2.4,0-4.3,1.9-4.3,4.3s1.9,4.3,4.3,4.3s4.3-1.9,4.3-4.3S84.9,106.3,82.5,106.3z"/>
	<path class="st0" d="M115,108.5c-4.8,0-8.7-3.9-8.7-8.7s3.9-8.7,8.7-8.7s8.7,3.9,8.7,8.7S119.7,108.5,115,108.5z M115,95.5
		c-2.4,0-4.3,1.9-4.3,4.3s1.9,4.3,4.3,4.3s4.3-1.9,4.3-4.3S117.3,95.5,115,95.5z"/>
	<path class="st0" d="M37,110.6c-4.8,0-8.7-3.9-8.7-8.7s3.9-8.7,8.7-8.7s8.7,3.9,8.7,8.7S41.8,110.6,37,110.6z M37,97.6
		c-2.4,0-4.3,1.9-4.3,4.3s1.9,4.3,4.3,4.3s4.3-1.9,4.3-4.3S39.4,97.6,37,97.6z"/>
	<path class="st0" d="M28.4,91.1c-4.8,0-8.7-3.9-8.7-8.7s3.9-8.7,8.7-8.7s8.7,3.9,8.7,8.7S33.2,91.1,28.4,91.1z M28.4,78.2
		c-2.4,0-4.3,1.9-4.3,4.3s1.9,4.3,4.3,4.3s4.3-1.9,4.3-4.3S30.8,78.2,28.4,78.2z"/>
	<path class="st0" d="M41.4,84.7c-4.8,0-8.7-3.9-8.7-8.7s3.9-8.7,8.7-8.7S50,71.2,50,76S46.2,84.7,41.4,84.7z M41.4,71.7
		C39,71.7,37,73.6,37,76s1.9,4.3,4.3,4.3s4.3-1.9,4.3-4.3S43.8,71.7,41.4,71.7z"/>
	<path class="st0" d="M41.4,50c-4.8,0-8.7-3.9-8.7-8.7s3.9-8.7,8.7-8.7s8.7,3.9,8.7,8.7S46.2,50,41.4,50z M41.4,37
		C39,37,37,39,37,41.4s1.9,4.3,4.3,4.3s4.3-1.9,4.3-4.3S43.8,37,41.4,37z"/>
	<path class="st0" d="M28.4,73.8c-4.8,0-8.7-3.9-8.7-8.7s3.9-8.7,8.7-8.7s8.7,3.9,8.7,8.7S33.2,73.8,28.4,73.8z M28.4,60.9
		c-2.4,0-4.3,1.9-4.3,4.3s1.9,4.3,4.3,4.3s4.3-1.9,4.3-4.3S30.8,60.9,28.4,60.9z"/>
	<path class="st0" d="M78.2,106.3c-4.8,0-8.7-3.9-8.7-8.7s3.9-8.7,8.7-8.7s8.7,3.9,8.7,8.7S82.9,106.3,78.2,106.3z M78.2,93.3
		c-2.4,0-4.3,1.9-4.3,4.3s1.9,4.3,4.3,4.3s4.3-1.9,4.3-4.3S80.6,93.3,78.2,93.3z"/>
</g>
</svg>
