<?xml version="1.0" encoding="utf-8"?>
<!-- Generator: Adobe Illustrator 22.0.0, SVG Export Plug-In . SVG Version: 6.00 Build 0)  -->
<svg version="1.1" id="Layer_1" xmlns="http://www.w3.org/2000/svg" xmlns:xlink="http://www.w3.org/1999/xlink" x="0px" y="0px"
	 viewBox="0 0 152 152" style="enable-background:new 0 0 152 152;" xml:space="preserve">
<style type="text/css">
	.st0{fill:#1a2f4a;}
</style>
<g>
	<path class="st0" d="M149.3,45.2V7.4h-40.6c-0.9-2.7-3.5-4.7-6.5-4.7h-0.7c-3.6,0-6.6,2.8-6.9,6.4l-3.8,48.8l-12.3-8.2
		c-2.4-1.6-5-2.7-7.7-3.5c4.6-3.5,7.6-8.9,7.6-15.1c0-10.4-8.5-18.9-18.9-18.9s-18.9,8.5-18.9,18.9c0,5.5,2.4,10.5,6.2,14
		c-2.9-0.4-5.8-1.4-8.3-3L14.7,27.5c-1.2-0.8-2.7-1.2-4.1-1.2c-4.4,0-7.9,3.5-7.9,7.9v0.9c0,2.7,1.3,5.2,3.6,6.6L37.5,62
		c3.4,2.2,5.4,5.9,5.4,9.9v37.4c-16.2,7.5-29.5,20.3-37.5,36.3l-1.8,3.7h144.8l-1.8-3.7c-9.2-18.4-25.5-32.6-44.9-39.3l1.6-20.3
		l0.9,0.6c1.2,0.8,2.7,1.2,4.1,1.2c4.4,0,7.9-3.5,7.9-7.9v-1c0-2.6-1.3-5.1-3.5-6.6l-8-5.3l1.7-21.8H149.3z M144.6,40.5h-37.8
		l2.2-28.4h35.7V40.5z M99.3,9.4c0.1-1.1,1-2,2.2-2h0.7c1.2,0,2.2,1,2.2,2.4l-9.1,118.6c-0.1,1.1-1,2-2.2,2h-0.7
		c-1.2,0-2.2-1-2.2-2.4L99.3,9.4z M87.4,102.9c-3.8-0.6-7.6-0.8-11.4-0.8l0-32.7l13.3,8.2L87.4,102.9z M61.7,65.9l-2.3,3.4l-2.3-3.4
		L58.6,50h0.8h0.8L61.7,65.9z M45.2,31.1c0-7.8,6.4-14.2,14.2-14.2s14.2,6.4,14.2,14.2s-6.4,14.2-14.2,14.2S45.2,38.9,45.2,31.1z
		 M40.1,58L8.9,37.8c-0.9-0.6-1.4-1.6-1.4-2.7v-0.9c0-1.7,1.4-3.2,3.2-3.2c0.6,0,1.2,0.2,1.7,0.5l23.7,14.6C40,48.6,44.8,50,49.6,50
		h4.3l-1.6,17.2l7.2,10.7l7.2-10.7L65,50c3.9,0.2,7.7,1.3,10.9,3.5l14.5,9.7l-0.7,9l-13.1-8h-5.4l0,66.3c0,2.5-2.1,4.6-4.8,4.6
		c-2.5,0-4.6-2.1-4.6-4.6v0V90.2v-2.4h-4.7v2.4v40.3c0,2.5-2.1,4.6-4.8,4.6c-2.5,0-4.6-2.1-4.6-4.6V71.9
		C47.6,66.3,44.8,61.1,40.1,58z M29.3,123.4c1.1,1.3,1.8,2.9,1.8,4.7c0,3.9-3.2,7.1-7.1,7.1c-1.8,0-3.5-0.7-4.8-1.8
		C22.2,129.7,25.6,126.4,29.3,123.4z M133.6,134.3c-1,0.5-2.1,0.8-3.2,0.8c-3.9,0-7.1-3.2-7.1-7.1c0-1.2,0.3-2.4,0.9-3.4
		C127.6,127.6,130.8,130.8,133.6,134.3z M120.5,121.6c-1.2,1.9-1.9,4.1-1.9,6.4c0,6.5,5.3,11.8,11.8,11.8c2.2,0,4.3-0.6,6.1-1.8
		c1.5,2.1,2.9,4.2,4.1,6.5H11.3c1.5-2.6,3.2-5.1,5-7.6c2.1,1.8,4.8,2.8,7.7,2.8c6.5,0,11.8-5.3,11.8-11.8c0-2.8-1-5.4-2.7-7.5
		c3.1-2.2,6.4-4.2,9.8-5.9v15.9c0,5.2,4.2,9.4,9.6,9.4c2.8,0,5.3-1.3,7-3.2c1.7,2,4.3,3.2,7.2,3.2c5.2,0,9.4-4.2,9.4-9.4l0-23.7
		c3.7,0,7.4,0.3,11,0.8l-1.5,20.1c0,0.2,0,0.4,0,0.5c0,3.8,3.1,6.9,6.9,6.9h0.7c3.6,0,6.6-2.8,6.9-6.4l1.3-17.5
		C108.2,113.7,114.7,117.3,120.5,121.6z M110.1,76.3c0.9,0.6,1.4,1.6,1.4,2.6v1c0,1.7-1.4,3.2-3.2,3.2c-0.6,0-1.2-0.2-1.7-0.5
		l-3-1.8l0.6-8.3L110.1,76.3z"/>
	<rect x="135.1" y="16.9" class="st0" width="4.7" height="4.7"/>
	<rect x="125.7" y="16.9" class="st0" width="4.7" height="4.7"/>
	<rect x="116.2" y="16.9" class="st0" width="4.7" height="4.7"/>
	<rect x="109.1" y="123.3" class="st0" width="4.7" height="4.7"/>
	<rect x="102" y="135.1" class="st0" width="4.7" height="4.7"/>
</g>
</svg>
