<?xml version="1.0" encoding="utf-8"?>
<!-- Generator: Adobe Illustrator 22.0.0, SVG Export Plug-In . SVG Version: 6.00 Build 0)  -->
<svg version="1.1" id="Layer_1" xmlns="http://www.w3.org/2000/svg" xmlns:xlink="http://www.w3.org/1999/xlink" x="0px" y="0px"
	 viewBox="0 0 152 152" style="enable-background:new 0 0 152 152;" xml:space="preserve">
<style type="text/css">
	.st0{fill:#1a2f4a;}
</style>
<g>
	<path class="st0" d="M91,18.9c0-8.3-6.7-15-15-15s-15,6.7-15,15s6.7,15,15,15S91,27.2,91,18.9z M76,27.9c-5,0-9-4-9-9s4-9,9-9
		s9,4,9,9S81,27.9,76,27.9z"/>
	<path class="st0" d="M48.9,61v3h54.1v-3c0-14.9-12.1-27.1-27.1-27.1S48.9,46,48.9,61z M76,39.9c10.6,0,19.4,7.9,20.8,18H55.2
		C56.6,47.8,65.4,39.9,76,39.9z"/>
	<path class="st0" d="M45.9,103.1c0-8.3-6.7-15-15-15s-15,6.7-15,15s6.7,15,15,15S45.9,111.4,45.9,103.1z M30.9,112.1c-5,0-9-4-9-9
		s4-9,9-9s9,4,9,9S35.9,112.1,30.9,112.1z"/>
	<path class="st0" d="M58,145.2c0-14.9-12.1-27.1-27.1-27.1S3.8,130.2,3.8,145.2v3H58V145.2z M10.1,142.2c1.5-10.2,10.2-18,20.8-18
		s19.4,7.9,20.8,18H10.1z"/>
	<path class="st0" d="M136.1,103.1c0-8.3-6.7-15-15-15s-15,6.7-15,15s6.7,15,15,15S136.1,111.4,136.1,103.1z M121.1,112.1
		c-5,0-9-4-9-9s4-9,9-9c5,0,9,4,9,9S126.1,112.1,121.1,112.1z"/>
	<path class="st0" d="M121.1,118.1c-14.9,0-27.1,12.1-27.1,27.1v3h54.1v-3C148.2,130.2,136,118.1,121.1,118.1z M100.3,142.2
		c1.5-10.2,10.2-18,20.8-18s19.4,7.9,20.8,18H100.3z"/>
	<polygon class="st0" points="73,76 73,95.8 55.8,113 60.1,117.2 76,101.3 91.9,117.2 96.2,113 79,95.8 79,76 	"/>
</g>
</svg>
