<?xml version="1.0" encoding="utf-8"?>
<!-- Generator: Adobe Illustrator 22.0.0, SVG Export Plug-In . SVG Version: 6.00 Build 0)  -->
<svg version="1.1" id="Layer_1" xmlns="http://www.w3.org/2000/svg" xmlns:xlink="http://www.w3.org/1999/xlink" x="0px" y="0px"
	 viewBox="0 0 152 152" style="enable-background:new 0 0 152 152;" xml:space="preserve">
<style type="text/css">
	.st0{fill:#1a2f4a;stroke:#1a2f4a;stroke-width:0.75;stroke-miterlimit:10;}
</style>
<g>
	<g>
		<path class="st0" d="M122.2,127.1H117c-1.9,0-3.7,0.8-5,2l-0.1,0.1c-1.3,1.3-2.1,3.1-2.1,5v7.1h19.4v-7.1c0-2-0.8-3.7-2.1-5
			C125.9,127.9,124.1,127.1,122.2,127.1 M117,124.4h5.1c2.7,0,5.2,1.1,6.9,2.9c1.8,1.8,2.9,4.2,2.9,6.9v8.5c0,0.7-0.6,1.3-1.3,1.3
			h-22.1c-0.7,0-1.3-0.6-1.3-1.3v-8.5c0-2.7,1.1-5.1,2.9-6.9l0.1-0.1C111.9,125.5,114.3,124.4,117,124.4z M122.7,113.3
			c-0.8-0.8-1.9-1.3-3.1-1.3c-1.2,0-2.3,0.5-3.1,1.3c-0.8,0.8-1.3,1.9-1.3,3.1c0,1.2,0.5,2.3,1.3,3.1c0.8,0.8,1.9,1.3,3.1,1.3
			c1.2,0,2.3-0.5,3.1-1.3c0.8-0.8,1.3-1.9,1.3-3.1C123.9,115.2,123.5,114.2,122.7,113.3L122.7,113.3z M119.6,109.4
			c1.9,0,3.7,0.8,5,2.1l0.1,0.1c1.2,1.3,2,3,2,4.9c0,1.9-0.8,3.7-2.1,5c-1.3,1.3-3,2.1-5,2.1c-1.9,0-3.7-0.8-5-2.1
			c-1.3-1.3-2.1-3-2.1-5c0-1.9,0.8-3.7,2.1-5C115.9,110.2,117.6,109.4,119.6,109.4z M95.9,127.1h-5.1c-1.9,0-3.7,0.8-5,2l-0.1,0.1
			c-1.3,1.3-2.1,3.1-2.1,5v7.1H103v-7.1c0-2-0.8-3.7-2.1-5C99.6,127.9,97.9,127.1,95.9,127.1z M90.8,124.4h5.1
			c2.7,0,5.2,1.1,6.9,2.9c1.8,1.8,2.9,4.2,2.9,6.9v8.5c0,0.7-0.6,1.3-1.3,1.3H82.3c-0.7,0-1.3-0.6-1.3-1.3v-8.5
			c0-2.7,1.1-5.1,2.9-6.9l0.1-0.1C85.7,125.5,88.1,124.4,90.8,124.4z M96.4,113.3c-0.8-0.8-1.9-1.3-3.1-1.3c-1.2,0-2.3,0.5-3.1,1.3
			c-0.8,0.8-1.3,1.9-1.3,3.1c0,1.2,0.5,2.3,1.3,3.1c0.8,0.8,1.9,1.3,3.1,1.3c1.2,0,2.2-0.5,3-1.2l0.1-0.1c0.8-0.8,1.3-1.9,1.3-3.1
			C97.7,115.2,97.2,114.1,96.4,113.3z M93.3,109.4c1.9,0,3.7,0.8,5,2.1c1.3,1.3,2.1,3,2.1,5c0,1.9-0.8,3.7-2.1,5l-0.1,0.1
			c-1.3,1.2-3,2-4.9,2c-1.9,0-3.7-0.8-5-2.1c-1.3-1.3-2.1-3-2.1-5c0-1.9,0.8-3.7,2.1-5C89.6,110.2,91.4,109.4,93.3,109.4z
			 M69.6,127.1h-5.1c-1.9,0-3.7,0.8-5,2l-0.1,0.1c-1.3,1.3-2.1,3.1-2.1,5v7.1h19.4v-7.1c0-2-0.8-3.7-2.1-5
			C73.4,127.9,71.6,127.1,69.6,127.1z M64.5,124.4h5.1c2.7,0,5.2,1.1,6.9,2.9c1.8,1.8,2.9,4.2,2.9,6.9v8.5c0,0.7-0.6,1.3-1.3,1.3H56
			c-0.7,0-1.3-0.6-1.3-1.3v-8.5c0-2.7,1.1-5.1,2.9-6.9l0.1-0.1C59.4,125.5,61.8,124.4,64.5,124.4z M70.1,113.3
			c-0.8-0.8-1.9-1.3-3.1-1.3c-1.2,0-2.3,0.5-3.1,1.3c-0.8,0.8-1.3,1.9-1.3,3.1c0,1.2,0.5,2.3,1.3,3.1c0.8,0.8,1.9,1.3,3.1,1.3
			c1.2,0,2.3-0.5,3.1-1.3c0.8-0.8,1.3-1.9,1.3-3.1C71.4,115.2,70.9,114.1,70.1,113.3z M67.1,109.4c1.9,0,3.7,0.8,5,2.1
			c1.3,1.3,2.1,3,2.1,5c0,1.9-0.8,3.7-2.1,5c-1.3,1.3-3,2.1-5,2.1c-1.9,0-3.7-0.8-5-2.1c-1.3-1.3-2.1-3-2.1-5c0-1.9,0.8-3.7,2.1-5
			C63.3,110.2,65.1,109.4,67.1,109.4z M123,56.1c0.7,0,1.3,0.6,1.3,1.3c0,0.7-0.6,1.3-1.3,1.3H70.4c-0.7,0-1.3-0.6-1.3-1.3
			c0-0.7,0.6-1.3,1.3-1.3H123z M123,41.8c0.7,0,1.3,0.6,1.3,1.3c0,0.7-0.6,1.3-1.3,1.3H70.4c-0.7,0-1.3-0.6-1.3-1.3
			c0-0.7,0.6-1.3,1.3-1.3H123z M123,27.6c0.7,0,1.3,0.6,1.3,1.3c0,0.7-0.6,1.3-1.3,1.3h-37c-0.7,0-1.3-0.6-1.3-1.3
			c0-0.7,0.6-1.3,1.3-1.3H123z M53.2,32.9c-0.7,0.1-1.4-0.5-1.5-1.2c-0.1-0.7,0.5-1.4,1.2-1.4 M21.6,24c-1.4-1.3-3.2-2.2-5.3-2.2
			c-2.1,0-3.9,0.8-5.3,2.2c-1.4,1.3-2.2,3.2-2.2,5.3c0,2.1,0.8,3.9,2.2,5.3c1.3,1.3,3.2,2.2,5.3,2.2c2.1,0,3.9-0.8,5.3-2.2
			c1.4-1.3,2.2-3.2,2.2-5.3C23.8,27.3,23,25.4,21.6,24L21.6,24z M16.4,19.2c2.8,0,5.3,1.1,7.2,3l0.1,0.1c1.8,1.8,2.9,4.3,2.9,7.1
			c0,2.8-1.1,5.3-3,7.2c-1.8,1.8-4.4,3-7.2,3c-2.8,0-5.3-1.1-7.2-3c-1.8-1.8-3-4.4-3-7.2c0-2.8,1.1-5.3,3-7.2
			C11,20.3,13.6,19.2,16.4,19.2z M20.4,46.2c-1.3-0.5-2.6-0.8-4.1-0.8c-3.1,0-6,1.3-8.1,3.3l-0.1,0.1c-2.1,2.1-3.4,4.9-3.4,8.1v22.3
			h23V58.7c0-0.2,0.1-0.5,0.2-0.7c0.4-0.6,1.2-0.9,1.8-0.5l5.2,3c0.6,0.3,1.3,0.4,1.9,0.2c0.6-0.2,1.2-0.6,1.5-1.2l14-24.2
			c0.3-0.5,0.4-1,0.3-1.6c-0.1-0.5-0.3-1-0.6-1.4c-0.2-0.2-0.3-0.3-0.6-0.5c-0.6-0.3-1.3-0.4-1.9-0.2c-0.6,0.2-1.2,0.6-1.5,1.2
			L36.1,53.8c-0.4,0.6-1.2,0.9-1.8,0.5l-10-5.8L24,48.4C23,47.5,21.8,46.7,20.4,46.2z M16.4,42.8c1.8,0,3.5,0.3,5,0.9
			c1.6,0.6,3,1.5,4.3,2.6l8.8,5l11.4-19.7c0.7-1.2,1.9-2.1,3.1-2.4c1.3-0.3,2.7-0.2,3.9,0.5c0.4,0.3,0.8,0.6,1.2,0.9
			c0.8,0.8,1.2,1.8,1.4,2.9c0.1,1.1-0.1,2.2-0.6,3.2L40.8,61c-0.7,1.2-1.9,2.1-3.1,2.4c-1.3,0.3-2.7,0.2-3.9-0.5L30.5,61v19.6
			c0,0.7-0.6,1.3-1.3,1.3H3.5c-0.7,0-1.3-0.6-1.3-1.3V56.9c0-3.9,1.6-7.4,4.2-10l0.1-0.1C9,44.4,12.5,42.8,16.4,42.8z M147.1,10.7
			H39.5v31.9l6.3-10.9c0.7-1.2,1.9-2.1,3.1-2.4c1.3-0.3,2.7-0.2,3.9,0.5l0.6,0.4l0.5,0.5c0.8,0.8,1.3,1.9,1.5,3
			c0.1,1.1-0.1,2.2-0.6,3.2l-14,24.2c-0.2,0.4-0.5,0.8-0.9,1.1l-0.5,0.4v13.9h107.6V10.7z M38.2,8h110.3c0.7,0,1.3,0.6,1.3,1.3v68.3
			c0,0.7-0.6,1.3-1.3,1.3H38.2c-0.7,0-1.3-0.6-1.3-1.3V61.7c0-0.5,0.3-1,0.8-1.2c0.2-0.1,0.3-0.2,0.5-0.4c0.2-0.2,0.3-0.3,0.4-0.5
			l14-24.2c0.3-0.5,0.4-1,0.3-1.6c-0.1-0.5-0.3-1-0.7-1.4l-0.2-0.2l-0.3-0.2c-0.6-0.3-1.3-0.4-1.9-0.2c-0.6,0.2-1.2,0.6-1.5,1.2
			l-8.9,15.3c-0.4,0.6-1.2,0.9-1.8,0.5c-0.4-0.2-0.7-0.7-0.7-1.2l0-38.3C36.8,8.6,37.4,8,38.2,8z"/>
	</g>
</g>
</svg>
