<svg xmlns="http://www.w3.org/2000/svg" data-name="40-Qr code" viewBox="0 0 100 125" x="0px" y="0px"><path d="M34.79,91H9V64.92a2,2,0,0,0-4,0V93a2,2,0,0,0,2,2H34.79a2,2,0,0,0,0-4Z"/><path d="M93,62.92a2,2,0,0,0-2,2V91H64.83a2,2,0,1,0,0,4H93a2,2,0,0,0,2-2V64.92A2,2,0,0,0,93,62.92Z"/><path d="M93,5H65.06a2,2,0,0,0,0,4H91V34.66a2,2,0,0,0,4,0V7A2,2,0,0,0,93,5Z"/><path d="M7,37a2,2,0,0,0,2-2V9H34.91a2,2,0,0,0,0-4H7A2,2,0,0,0,5,7V35A2,2,0,0,0,7,37Z"/><path d="M19,20V36a2,2,0,0,0,2,2H37a2,2,0,0,0,2-2V20a2,2,0,0,0-2-2H21A2,2,0,0,0,19,20Zm4,2H35V34H23Z"/><path d="M63,38H79a2,2,0,0,0,2-2V20a2,2,0,0,0-2-2H63a2,2,0,0,0-2,2V36A2,2,0,0,0,63,38Zm2-16H77V34H65Z"/><path d="M37,62H21a2,2,0,0,0-2,2V80a2,2,0,0,0,2,2H37a2,2,0,0,0,2-2V64A2,2,0,0,0,37,62ZM35,78H23V66H35Z"/><rect x="25" y="24" width="8" height="8"/><rect x="25" y="68" width="8" height="8"/><rect x="67" y="24" width="8" height="8"/><polygon points="50 34 46 34 46 30 42 30 42 34 42 38 46 38 50 38 54 38 54 34 50 34"/><rect x="34" y="42" width="4" height="4"/><rect x="38" y="46" width="4" height="4"/><polygon points="46 42 42 42 42 46 46 46 50 46 50 42 46 42"/><rect x="50" y="46" width="4" height="4"/><polygon points="34 54 34 58 38 58 38 54 38 50 34 50 34 54"/><rect x="46" y="50" width="4" height="4"/><rect x="42" y="54" width="4" height="4"/><polygon points="18 54 18 58 22 58 26 58 26 54 22 54 18 54"/><rect x="74" y="42" width="4" height="4"/><polygon points="74 78 74 82 78 82 82 82 82 78 78 78 78 74 74 74 74 78"/><polygon points="62 46 62 42 58 42 58 38 54 38 54 42 54 46 58 46 62 46"/><rect x="54" y="62" width="4" height="4"/><rect x="50" y="66" width="4" height="4"/><rect x="46" y="70" width="4" height="4"/><polygon points="50 58 46 58 46 62 42 62 42 66 46 66 50 66 50 62 50 58"/><rect x="50" y="54" width="4" height="4"/><rect x="78" y="46" width="4" height="4"/><rect x="74" y="50" width="4" height="4"/><rect x="78" y="54" width="4" height="4"/><polygon points="54 34 58 34 58 30 58 26 54 26 54 30 54 34"/><rect x="46" y="26" width="4" height="4"/><rect x="46" y="78" width="4" height="4"/><rect x="42" y="74" width="4" height="4"/><polygon points="54 22 54 18 50 18 46 18 46 22 50 22 50 26 54 26 54 22"/><rect x="58" y="58" width="4" height="4"/><polygon points="62 70 58 70 58 74 54 74 50 74 50 78 54 78 54 82 58 82 58 78 62 78 62 74 62 70"/><polygon points="70 70 66 70 66 74 66 78 70 78 70 74 74 74 74 70 70 70"/><rect x="62" y="54" width="4" height="4"/><rect x="58" y="50" width="4" height="4"/><polygon points="70 50 70 46 70 42 66 42 66 46 66 50 66 54 70 54 70 50"/><rect x="18" y="46" width="4" height="4"/><rect x="62" y="78" width="4" height="4"/><polygon points="78 74 82 74 82 70 82 66 78 66 78 70 78 74"/><polygon points="30 46 30 42 26 42 22 42 22 46 26 46 26 50 26 54 30 54 30 50 34 50 34 46 30 46"/><polygon points="66 58 66 62 70 62 70 66 74 66 78 66 78 62 74 62 74 58 74 54 70 54 70 58 66 58"/><polygon points="66 62 62 62 62 66 62 70 66 70 66 66 66 62"/></svg>