<?xml version="1.0" encoding="utf-8"?>
<!-- Generator: Adobe Illustrator 22.0.0, SVG Export Plug-In . SVG Version: 6.00 Build 0)  -->
<svg version="1.1" id="Layer_1" xmlns="http://www.w3.org/2000/svg" xmlns:xlink="http://www.w3.org/1999/xlink" x="0px" y="0px"
	 viewBox="0 0 152 152" style="enable-background:new 0 0 152 152;" xml:space="preserve">
<style type="text/css">
	.st0{fill:#1a2f4a;stroke:#1a2f4a;stroke-width:0.75;stroke-miterlimit:10;}
</style>
<g>
	<path class="st0" d="M138.6,9.3H13.4C8.2,9.3,4,13.5,4,18.7v89.1c0,5.2,4.2,9.4,9.4,9.4h51.3l-3.1,22.5h-7c-0.8,0-1.5,0.7-1.5,1.5
		s0.7,1.5,1.5,1.5H98c0.8,0,1.5-0.7,1.5-1.5s-0.7-1.5-1.5-1.5h-7l-3.1-22.5h50.7c5.2,0,9.4-4.2,9.4-9.4V18.7
		C148,13.5,143.8,9.3,138.6,9.3z M112.2,40c-2-2.2-1.8-5.6,0.3-7.6c2.2-2,5.6-1.8,7.6,0.3c1.9,2.1,1.9,5.2,0,7.3
		c-1.1,1.2-1.7,2.8-1.5,4.5c0.1,1.6,0.9,3,2.2,3.9c0.5,0.3,1,0.6,1.5,0.8c2.4,1,4,3.5,4,6.2v1.6h-20v-1.6c0-2.7,1.6-5.2,4-6.1
		c0.3-0.1,0.5-0.2,0.8-0.4c1.5-0.8,2.5-2.3,2.7-4C113.9,43.2,113.4,41.4,112.2,40z M123.2,46.8L123.2,46.8c-0.3-0.1-0.6-0.3-0.9-0.5
		c-0.6-0.5-1-1.2-1.1-2c-0.1-0.9,0.2-1.8,0.8-2.4c3-3.3,2.8-8.4-0.4-11.4c-3.3-3-8.4-2.8-11.4,0.4c-2.8,3.1-2.9,7.8,0,10.9
		c0.7,0.7,1,1.7,0.8,2.7c-0.1,0.9-0.6,1.6-1.4,2c-0.2,0.1-0.3,0.2-0.5,0.2c-3.5,1.5-5.7,4.9-5.6,8.6v1.6h-7v-3.8
		c0-0.7-0.6-1.3-1.3-1.3h-6.9v-4.8c0-1.5-1.2-2.7-2.7-2.7h-8.3V26H145v31.1h-16.1v-1.6C128.9,51.7,126.7,48.3,123.2,46.8L123.2,46.8
		z M76.1,72.6H65.4V54.6h28.5v18.1h-9.6c-0.3,0-0.6,0.1-0.9,0.3l-5.9,5.2V74C77.5,73.2,76.9,72.6,76.1,72.6L76.1,72.6z M47.8,94.1
		v-1.6c0.1-3.8-2.2-7.2-5.6-8.7c-0.3-0.1-0.6-0.3-0.9-0.5c-0.6-0.5-1-1.2-1.1-2c-0.1-0.9,0.2-1.8,0.8-2.4c3-3.3,2.8-8.4-0.4-11.4
		c-3.3-3-8.4-2.8-11.4,0.4c-2.8,3.1-2.9,7.8,0,10.9c0.7,0.7,1,1.7,0.8,2.7c-0.1,0.9-0.6,1.6-1.4,2c-0.2,0.1-0.3,0.2-0.5,0.2
		c-3.5,1.5-5.7,4.9-5.6,8.6v1.6H7V59.7h48.2v5c0,1.5,1.2,2.7,2.7,2.7h4.8V74c0,0.7,0.6,1.3,1.3,1.3h10.6v18.8L47.8,94.1z M31.1,77.1
		c-2-2.2-1.8-5.6,0.3-7.6s5.6-1.8,7.6,0.3c1.9,2.1,1.9,5.2,0,7.3c-1.1,1.2-1.7,2.8-1.5,4.5c0.1,1.6,0.9,3,2.2,3.9
		c0.5,0.3,1,0.6,1.5,0.8l0,0c2.4,1,4,3.5,4,6.2v1.6h-20v-1.6c0-2.7,1.6-5.2,4-6.1c0.3-0.1,0.5-0.2,0.8-0.4c1.5-0.8,2.5-2.3,2.7-4
		C32.9,80.2,32.3,78.4,31.1,77.1L31.1,77.1z M85.6,51.9H64c-0.7,0-1.3,0.6-1.3,1.3v11.5h-4.8V47.1h27.7V51.9z M57.9,44.4
		c-1.5,0-2.7,1.2-2.7,2.7v10h-7.4v-1.6c0.1-3.8-2.2-7.2-5.6-8.7h0c-0.3-0.1-0.6-0.3-0.9-0.5c-0.6-0.5-1-1.2-1.1-2
		c-0.1-0.9,0.2-1.8,0.8-2.4c3-3.3,2.8-8.4-0.4-11.4s-8.4-2.8-11.4,0.4c-2.8,3.1-2.9,7.8,0,10.9c0.7,0.7,1,1.7,0.8,2.7
		c-0.1,0.9-0.6,1.6-1.4,2c-0.2,0.1-0.3,0.2-0.5,0.2c-3.5,1.5-5.7,4.9-5.6,8.6v1.6H7V26h67.7v18.5H57.9z M31.1,40
		c-2-2.2-1.8-5.6,0.3-7.6s5.6-1.8,7.6,0.3c1.9,2.1,1.9,5.2,0,7.3c-1.1,1.2-1.7,2.8-1.5,4.5c0.1,1.6,0.9,3,2.2,3.9
		c0.5,0.3,1,0.6,1.5,0.8c2.4,1,4,3.5,4,6.2v1.6h-20v-1.6c0-2.7,1.6-5.2,4-6.1c0.3-0.1,0.5-0.2,0.8-0.4c1.5-0.8,2.5-2.3,2.7-4
		C32.9,43.2,32.3,41.4,31.1,40z M13.4,12.3h125.2c3.6,0,6.4,2.9,6.4,6.4V23H7v-4.2C7,15.2,9.9,12.3,13.4,12.3z M87.9,139.7H64.6
		l3.1-22.5h17.1L87.9,139.7z M138.6,114.2H13.4c-3.6,0-6.4-2.9-6.4-6.4v-11h69c0,0,0,0,0,0c0,0,0,0,0,0h51c0,0,0.1,0,0.1,0h0.4
		c0.7,0,1.3-0.6,1.3-1.3v-2.9c0.1-3.8-2.2-7.2-5.6-8.7c-0.3-0.1-0.6-0.3-0.9-0.5c-0.6-0.5-1-1.2-1.1-2c-0.1-0.9,0.2-1.8,0.8-2.4
		c3-3.3,2.8-8.4-0.4-11.4c-3.3-3-8.4-2.8-11.4,0.4c-2.8,3.1-2.9,7.8,0,10.9c0.7,0.7,1,1.7,0.8,2.7c-0.1,0.9-0.6,1.6-1.4,2
		c-0.2,0.1-0.3,0.2-0.5,0.2c-3.5,1.5-5.7,4.9-5.6,8.6v1.6H77.3V81.9l7.4-6.6h10.4c0.7,0,1.3-0.6,1.3-1.3V59.7H145v34.4h-11.3
		c-0.7,0-1.3,0.6-1.3,1.3s0.6,1.3,1.3,1.3H145v11C145,111.4,142.1,114.2,138.6,114.2z M112.2,77.1c-2-2.2-1.8-5.6,0.3-7.6
		c2.2-2,5.6-1.8,7.6,0.3c1.9,2.1,1.9,5.2,0,7.3c-1.1,1.2-1.7,2.8-1.5,4.5c0.1,1.6,0.9,3,2.2,3.9c0.5,0.3,1,0.6,1.5,0.8l0,0
		c2.4,1,4,3.5,4,6.2v1.6h-20v-1.6c0-2.7,1.6-5.2,4-6.1c0.3-0.1,0.5-0.2,0.8-0.4c1.5-0.8,2.5-2.3,2.7-4
		C113.9,80.2,113.4,78.4,112.2,77.1z"/>
	<path class="st0" d="M76,100.6c-2.8,0-5,2.2-5,5c0,2.8,2.2,5,5,5c2.8,0,5-2.2,5-5c0,0,0,0,0,0C81,102.9,78.8,100.6,76,100.6z
		 M76,107.6c-1.1,0-2-0.9-2-2c0-1.1,0.9-2,2-2c1.1,0,2,0.9,2,2c0,0,0,0,0,0C78,106.7,77.1,107.6,76,107.6L76,107.6z"/>
	<path class="st0" d="M70.4,62.5h18.3c0.7,0,1.3-0.6,1.3-1.3c0-0.7-0.6-1.3-1.3-1.3H70.4c-0.7,0-1.3,0.6-1.3,1.3
		C69.1,61.8,69.7,62.5,70.4,62.5z"/>
	<path class="st0" d="M81.1,67c0-0.7-0.6-1.3-1.3-1.3h-9.3c-0.7,0-1.3,0.6-1.3,1.3c0,0.7,0.6,1.3,1.3,1.3h9.3
		C80.5,68.4,81.1,67.7,81.1,67z"/>
	<path class="st0" d="M88.7,65.7h-4.1c-0.7,0-1.3,0.6-1.3,1.3c0,0.7,0.6,1.3,1.3,1.3h4.1c0.7,0,1.3-0.6,1.3-1.3
		C90,66.3,89.4,65.7,88.7,65.7z"/>
	<path class="st0" d="M118.8,38.6c0.4-0.4,0.5-1,0.2-1.5s-1-0.5-1.5-0.2c-0.7,0.7-1.9,0.7-2.6,0c-0.4-0.4-1.1-0.3-1.5,0.1
		s-0.3,1.1,0.1,1.5l0,0c0.8,0.6,1.7,1,2.7,1C117.2,39.5,118.1,39.2,118.8,38.6z"/>
	<path class="st0" d="M37.8,38.6c0.4-0.4,0.5-1,0.2-1.5c-0.4-0.4-1-0.5-1.5-0.2c-0.7,0.7-1.9,0.7-2.6,0c-0.4-0.4-1.1-0.3-1.5,0.1
		c-0.4,0.4-0.3,1.1,0.1,1.5l0,0c0.8,0.6,1.7,1,2.7,1C36.1,39.5,37.1,39.2,37.8,38.6z"/>
	<path class="st0" d="M118.8,75.6c0.4-0.4,0.5-1,0.2-1.5s-1-0.5-1.5-0.2l0,0c-0.7,0.7-1.9,0.7-2.6,0c-0.4-0.4-1.1-0.3-1.5,0.1
		c-0.4,0.4-0.3,1.1,0.1,1.5c0.8,0.6,1.7,1,2.7,1C117.2,76.6,118.1,76.3,118.8,75.6z"/>
	<path class="st0" d="M37.8,75.6c0.4-0.4,0.5-1,0.2-1.5c-0.4-0.4-1-0.5-1.5-0.2c-0.7,0.7-1.9,0.7-2.6,0c-0.4-0.4-1.1-0.3-1.5,0.1
		c-0.4,0.4-0.3,1.1,0.1,1.5c0.8,0.6,1.7,1,2.7,1C36.1,76.6,37.1,76.3,37.8,75.6z"/>
</g>
</svg>
