<?xml version="1.0" encoding="utf-8"?>
<!-- Generator: Adobe Illustrator 22.0.0, SVG Export Plug-In . SVG Version: 6.00 Build 0)  -->
<svg version="1.1" id="Layer_1" xmlns="http://www.w3.org/2000/svg" xmlns:xlink="http://www.w3.org/1999/xlink" x="0px" y="0px"
	 viewBox="0 0 152 152" style="enable-background:new 0 0 152 152;" xml:space="preserve">
<style type="text/css">
	.st0{fill:#153355;}
</style>
<path class="st0" d="M118.8,61.8c15.7,0,28.5-12.8,28.5-28.5S134.5,4.8,118.8,4.8c-11.4,0-21.3,6.8-25.8,16.5l-7.6-2.8
	c0.1-0.6,0.2-1.2,0.2-1.8c0-6.5-5.3-11.9-11.9-11.9s-11.9,5.3-11.9,11.9s5.3,11.9,11.9,11.9c4.3,0,8-2.3,10.1-5.6l7.6,2.8
	c-0.7,2.4-1.1,4.9-1.1,7.6c0,3.1,0.5,6.1,1.4,8.9L65.6,53.2C60.8,44.2,51.3,38,40.4,38c-3.5,0-6.9,0.7-10,1.9l-6.6-13.8
	c2.9-2.2,4.7-5.6,4.7-9.4c0-6.5-5.3-11.9-11.9-11.9S4.8,10.1,4.8,16.6s5.3,11.9,11.9,11.9c1,0,1.9-0.2,2.9-0.4L26,41.9
	C17.6,46.9,11.9,56,11.9,66.5c0,9.9,5,18.5,12.6,23.7L20.2,98c-1.1-0.4-2.3-0.6-3.6-0.6c-6.5,0-11.9,5.3-11.9,11.9
	s5.3,11.9,11.9,11.9s11.9-5.3,11.9-11.9c0-3.6-1.6-6.8-4.2-9l4.4-7.8c3.6,1.6,7.5,2.5,11.7,2.5c6.5,0,12.5-2.2,17.3-5.9L67,99.4
	c-4.7,5.1-7.7,11.9-7.7,19.4c0,1.5,0.1,2.9,0.4,4.3l-11,2.6c-1.9-4-6-6.9-10.7-6.9c-6.5,0-11.9,5.3-11.9,11.9
	c0,6.5,5.3,11.9,11.9,11.9s11.9-5.3,11.9-11.9c0-0.1,0-0.3,0-0.4l11-2.6c3.7,11.4,14.4,19.6,27.1,19.6c15.7,0,28.5-12.8,28.5-28.5
	c0-4.9-1.2-9.5-3.4-13.5l14-9.1c2.2,2.2,5.1,3.5,8.4,3.5c6.5,0,11.9-5.3,11.9-11.9S141.9,76,135.4,76s-11.9,5.3-11.9,11.9
	c0,1.5,0.3,3,0.8,4.3l-14,9.1c-2.8-3.6-6.4-6.5-10.6-8.4l11.6-32.1C113.7,61.4,116.2,61.8,118.8,61.8z M73.6,23.8
	c-3.9,0-7.1-3.2-7.1-7.1s3.2-7.1,7.1-7.1s7.1,3.2,7.1,7.1S77.6,23.8,73.6,23.8z M9.5,16.6c0-3.9,3.2-7.1,7.1-7.1s7.1,3.2,7.1,7.1
	s-3.2,7.1-7.1,7.1S9.5,20.6,9.5,16.6z M16.6,116.4c-3.9,0-7.1-3.2-7.1-7.1s3.2-7.1,7.1-7.1s7.1,3.2,7.1,7.1S20.6,116.4,16.6,116.4z
	 M38,137.8c-3.9,0-7.1-3.2-7.1-7.1c0-3.9,3.2-7.1,7.1-7.1s7.1,3.2,7.1,7.1C45.1,134.6,41.9,137.8,38,137.8z M135.4,80.8
	c3.9,0,7.1,3.2,7.1,7.1s-3.2,7.1-7.1,7.1s-7.1-3.2-7.1-7.1S131.4,80.8,135.4,80.8z M104.8,52.4c1.1-5.5,5.9-9.7,11.6-9.7h4.8
	c5.7,0,10.6,4.2,11.6,9.7c-3.9,2.9-8.8,4.6-14,4.6S108.7,55.3,104.8,52.4z M118.8,38c-3.9,0-7.1-3.2-7.1-7.1s3.2-7.1,7.1-7.1
	s7.1,3.2,7.1,7.1S122.7,38,118.8,38z M118.8,9.5c13.1,0,23.8,10.7,23.8,23.8c0,5.9-2.2,11.4-5.8,15.5c-1.7-4.4-5.1-7.9-9.5-9.6
	c2.1-2.1,3.4-5.1,3.4-8.3c0-6.5-5.3-11.9-11.9-11.9s-11.9,5.3-11.9,11.9c0,3.2,1.3,6.2,3.4,8.3c-4.3,1.7-7.8,5.2-9.5,9.6
	c-3.6-4.2-5.8-9.6-5.8-15.5C95,20.2,105.7,9.5,118.8,9.5z M16.6,66.5c0-13.1,10.7-23.8,23.8-23.8s23.8,10.7,23.8,23.8
	c0,6-2.2,11.4-5.9,15.6c-1.7-4.4-5.1-7.9-9.5-9.6c2.1-2.1,3.4-5.1,3.4-8.3c0-6.5-5.3-11.9-11.9-11.9s-11.9,5.3-11.9,11.9
	c0,3.2,1.3,6.2,3.4,8.3c-4.3,1.7-7.8,5.2-9.4,9.6C18.8,77.8,16.6,72.4,16.6,66.5z M33.2,64.1c0-3.9,3.2-7.1,7.1-7.1s7.1,3.2,7.1,7.1
	s-3.2,7.1-7.1,7.1S33.2,68.1,33.2,64.1z M26.3,85.6C27.4,80.1,32.3,76,38,76h4.8c5.7,0,10.6,4.2,11.6,9.7c-3.9,2.9-8.7,4.6-13.9,4.6
	C35.1,90.3,30.3,88.5,26.3,85.6z M73.8,137.9c1.1-5.5,5.9-9.6,11.6-9.6h4.8c5.7,0,10.6,4.2,11.6,9.7c-3.9,2.9-8.7,4.6-13.9,4.6
	C82.6,142.5,77.8,140.8,73.8,137.9z M87.8,123.5c-3.9,0-7.1-3.2-7.1-7.1s3.2-7.1,7.1-7.1s7.1,3.2,7.1,7.1S91.8,123.5,87.8,123.5z
	 M111.6,118.8c0,6-2.2,11.4-5.9,15.6c-1.7-4.4-5.1-7.9-9.5-9.6c2.1-2.1,3.4-5.1,3.4-8.3c0-6.5-5.3-11.9-11.9-11.9S76,109.8,76,116.4
	c0,3.2,1.3,6.2,3.4,8.3c-4.3,1.7-7.8,5.2-9.4,9.6c-3.6-4.2-5.8-9.6-5.8-15.5c0-13.1,10.7-23.8,23.8-23.8S111.6,105.7,111.6,118.8z
	 M95.3,91.3c-2.4-0.6-4.8-1-7.4-1c-6.5,0-12.5,2.2-17.3,5.9l-9.3-10.3c4.7-5.1,7.7-11.9,7.7-19.4c0-3.1-0.5-6.1-1.4-8.9l26.1-11.1
	c2.9,5.5,7.6,10,13.3,12.6L95.3,91.3z"/>
</svg>
