<?xml version="1.0" encoding="utf-8"?>
<!-- Generator: Adobe Illustrator 22.0.0, SVG Export Plug-In . SVG Version: 6.00 Build 0)  -->
<svg version="1.1" id="Layer_1" xmlns="http://www.w3.org/2000/svg" xmlns:xlink="http://www.w3.org/1999/xlink" x="0px" y="0px"
	 viewBox="0 0 152 152" style="enable-background:new 0 0 152 152;" xml:space="preserve">
<style type="text/css">
	.st0{fill:#1a2f4a;}
</style>
<g>
	<path class="st0" d="M58.3,102.6v4.4h4.4v-2.2h2.2v-4.4h-4.4C59.2,100.4,58.3,101.4,58.3,102.6z"/>
	<path class="st0" d="M91.5,100.4h-4.4v4.4h2.2v2.2h4.4v-4.4C93.8,101.4,92.8,100.4,91.5,100.4z"/>
	<path class="st0" d="M62.7,124.8h-4.4v4.4c0,1.2,1,2.2,2.2,2.2h4.4V127h-2.2V124.8z"/>
	<path class="st0" d="M89.3,127h-2.2v4.4h4.4c1.2,0,2.2-1,2.2-2.2v-4.4h-4.4V127z"/>
	<path class="st0" d="M144.8,16.1H133l-3.9-9.7C128.8,5.6,127.9,5,127,5H25c-0.9,0-1.7,0.6-2.1,1.4L19,16.1H7.2
		c-1.2,0-2.2,1-2.2,2.2v17.8c0,1.2,1,2.2,2.2,2.2H21l1.7,6.9v37.4h-4.4c-1,0-1.9,0.7-2.2,1.7l-1.8,7.2h-2.7c-1.2,0-2.2,1-2.2,2.2
		v8.9v42.2c0,1.2,1,2.2,2.2,2.2h8.9h110.9h8.9c1.2,0,2.2-1,2.2-2.2v-42.2v-8.9c0-1.2-1-2.2-2.2-2.2h-2.7l-1.8-7.2
		c-0.2-1-1.1-1.7-2.2-1.7h-4.4V64.9h6.7c1.2,0,2.2-1,2.2-2.2V38.3h6.7c1.2,0,2.2-1,2.2-2.2V18.3C147,17.1,146,16.1,144.8,16.1z
		 M26.5,9.4h99.1l2.7,6.7H23.8L26.5,9.4z M107.1,38.3v24.4c0,1.2,1,2.2,2.2,2.2h8.9v17.8H33.8V45.2l1.7-6.9H107.1z M29.9,42.7h-3.2
		l-1.1-4.4H31L29.9,42.7z M27.2,47.2h2.2v35.5h-2.2V47.2z M24.7,142.6l1.5-2.2h99.7l1.5,2.2H24.7z M138.1,100.4h-37.7v4.4h37.7v37.7
		h-5.5l-3.8-5.7c-0.4-0.6-1.1-1-1.8-1H25c-0.7,0-1.4,0.4-1.8,1l-3.8,5.7h-5.5v-37.7h37.7v-4.4H13.9V96h2.2h119.8h2.2V100.4z
		 M133.1,91.5H18.9l1.1-4.4H25h6.7h88.8h6.7h4.9L133.1,91.5z M124.8,82.7h-2.2V64.9h2.2V82.7z M133.7,60.5H127h-6.7h-8.9V29.4h22.2
		V60.5z M142.6,33.8h-4.4v-6.7c0-1.2-1-2.2-2.2-2.2h-26.6c-1.2,0-2.2,1-2.2,2.2v6.7H33.8H22.8H9.4V20.5h11.1h110.9h11.1V33.8z"/>
	<rect x="115.9" y="33.8" class="st0" width="4.4" height="4.4"/>
	<rect x="115.9" y="42.7" class="st0" width="13.3" height="4.4"/>
	<rect x="115.9" y="51.6" class="st0" width="13.3" height="4.4"/>
	<rect x="124.8" y="33.8" class="st0" width="4.4" height="4.4"/>
	<rect x="27.2" y="109.3" class="st0" width="17.8" height="4.4"/>
	<rect x="27.2" y="118.2" class="st0" width="4.4" height="4.4"/>
	<rect x="36.1" y="118.2" class="st0" width="8.9" height="4.4"/>
	<rect x="27.2" y="127" class="st0" width="8.9" height="4.4"/>
	<rect x="40.5" y="127" class="st0" width="4.4" height="4.4"/>
	<rect x="107.1" y="127" class="st0" width="17.8" height="4.4"/>
	<rect x="107.1" y="118.2" class="st0" width="4.4" height="4.4"/>
	<rect x="115.9" y="118.2" class="st0" width="8.9" height="4.4"/>
	<rect x="107.1" y="109.3" class="st0" width="8.9" height="4.4"/>
	<rect x="120.4" y="109.3" class="st0" width="4.4" height="4.4"/>
</g>
</svg>
