<?xml version="1.0" encoding="utf-8"?>
<!-- Generator: Adobe Illustrator 22.0.0, SVG Export Plug-In . SVG Version: 6.00 Build 0)  -->
<svg version="1.1" id="Layer_1" xmlns="http://www.w3.org/2000/svg" xmlns:xlink="http://www.w3.org/1999/xlink" x="0px" y="0px"
	 viewBox="0 0 152 152" style="enable-background:new 0 0 152 152;" xml:space="preserve">
<style type="text/css">
	.st0{display:none;}
	.st1{display:inline;fill:#FFCCCC;}
	.st2{fill:#153355;}
</style>
<g class="st0">
	<rect x="-867" y="-766.8" class="st1" width="1282" height="1265.3"/>
</g>
<g>
	<path class="st2" d="M122.8,69.6H99.5c1.8-2,2.9-4.7,2.9-7.6c0-6.3-5.1-11.5-11.5-11.5c-4.7,0-8.8,2.8-10.5,6.9
		c-1.8-4.1-5.8-6.9-10.5-6.9c-6.3,0-11.5,5.1-11.5,11.5c0,2.9,1.1,5.6,2.9,7.6H37.9v22.1h4.9v45.1h75.1V91.8h4.9
		C122.8,91.8,122.8,69.6,122.8,69.6z M116.7,75.7v9.9H83.4v-9.9H116.7z M85.5,62c0-3,2.4-5.4,5.4-5.4c3,0,5.4,2.4,5.4,5.4
		c0,3-2.4,5.4-5.4,5.4h-5.4V62z M69.8,56.6c3,0,5.4,2.4,5.4,5.4v5.4h-5.4c-3,0-5.4-2.4-5.4-5.4C64.4,59.1,66.9,56.6,69.8,56.6z
		 M44,75.7h33.3v9.9H44V75.7z M111.8,130.7H48.9v-39h28.4v38.8h6.1V91.8h28.4V130.7z"/>
	<polygon class="st2" points="14.4,74.1 6.9,87 21.8,87 	"/>
	<path class="st2" d="M138.1,27.2c-1.4,2.2-1.2,4.2-0.7,5.8c0.1,0.5,0.3,0.9,0.4,1.3c0.5,1.6,0.6,2.1,0.2,2.7
		c-0.4,0.6-0.9,0.7-2.5,0.9c-0.4,0-0.9,0.1-1.3,0.2c-1.7,0.3-3.6,0.9-5,3.1c-1.4,2.2-1.2,4.2-0.7,5.8c0.1,0.5,0.3,0.9,0.4,1.3
		c0.5,1.6,0.6,2.1,0.2,2.7c-0.4,0.6-0.9,0.7-2.5,0.9c-0.4,0-0.9,0.1-1.3,0.2c-1.7,0.3-3.6,0.9-5,3c-0.8,1.2-0.4,2.8,0.8,3.6
		c0.4,0.3,0.9,0.4,1.4,0.4c0.8,0,1.7-0.4,2.2-1.2c0.4-0.6,0.9-0.7,2.5-0.9c1.8-0.2,4.6-0.4,6.4-3.2c1.8-2.8,0.9-5.4,0.3-7.1
		c-0.5-1.6-0.6-2.1-0.2-2.7c0.4-0.6,0.9-0.7,2.5-0.9c1.8-0.2,4.6-0.4,6.4-3.2c1.8-2.8,0.9-5.4,0.3-7.1c-0.5-1.6-0.6-2.1-0.2-2.7
		c0.8-1.2,0.4-2.8-0.8-3.6C140.4,25.7,138.8,26,138.1,27.2z"/>
	<polygon class="st2" points="141.4,115.3 139.1,113.1 134.9,117.2 130.7,113.1 128.5,115.3 126.2,117.6 130.4,121.8 126.2,126 
		128.5,128.2 130.7,130.5 134.9,126.3 139.1,130.5 141.4,128.2 143.6,126 139.4,121.8 143.6,117.6 	"/>
	<polygon class="st2" points="27.5,113.9 21,113.9 21,119.8 15.1,119.8 15.1,123.1 15.1,126.3 21,126.3 21,132.2 27.5,132.2 
		27.5,126.3 33.4,126.3 33.4,123.1 33.4,119.8 27.5,119.8 	"/>
	<polygon class="st2" points="109.1,15.2 104.9,19.4 100.7,15.2 96.2,19.7 100.4,23.9 96.2,28.1 100.7,32.6 104.9,28.4 109.1,32.6 
		113.6,28.1 109.4,23.9 113.6,19.7 	"/>
	<circle class="st2" cx="59.4" cy="21.8" r="5.1"/>
	<path class="st2" d="M140,78.8c-2.8,0-5.1,2.3-5.1,5.1c0,2.8,2.3,5.1,5.1,5.1c2.8,0,5.1-2.3,5.1-5.1S142.8,78.8,140,78.8z"/>
	<path class="st2" d="M32,32.9c-5,0-9.2,4.1-9.2,9.2c0,5,4.1,9.2,9.2,9.2s9.2-4.1,9.2-9.2C41.1,37,37,32.9,32,32.9z M32,46.1
		c-2.2,0-4-1.8-4-4c0-2.2,1.8-4,4-4s4,1.8,4,4C36,44.3,34.2,46.1,32,46.1z"/>
</g>
</svg>
