<?xml version="1.0" encoding="utf-8"?>
<!-- Generator: Adobe Illustrator 22.0.0, SVG Export Plug-In . SVG Version: 6.00 Build 0)  -->
<svg version="1.1" id="Layer_1" xmlns="http://www.w3.org/2000/svg" xmlns:xlink="http://www.w3.org/1999/xlink" x="0px" y="0px"
	 viewBox="0 0 152 152" style="enable-background:new 0 0 152 152;" xml:space="preserve">
<style type="text/css">
	.st0{fill:#153355;}
</style>
<g>
	<path class="st0" d="M6.1,148.3h33.8c4,0,7.2-3.2,7.2-7.2c0-1.8-0.7-3.6-1.9-4.9c2.5-2.7,2.5-6.9,0-9.6c1.8-1.9,2.4-4.7,1.4-7.2
		h12.5c4,0,7.2-3.2,7.2-7.2c0-4-3.2-7.2-7.2-7.2H20.5v-8.4c0-4.7-3.8-8.4-8.4-8.4s-8.4,3.8-8.4,8.4v49.4
		C3.7,147.3,4.7,148.3,6.1,148.3z M42.2,131.5c0,1.3-1.1,2.4-2.4,2.4h-9.6c-1.3,0-2.4-1.1-2.4-2.4s1.1-2.4,2.4-2.4h9.6
		C41.2,129,42.2,130.1,42.2,131.5z M39.8,143.5h-9.6c-1.3,0-2.4-1.1-2.4-2.4s1.1-2.4,2.4-2.4h9.6c1.3,0,2.4,1.1,2.4,2.4
		S41.2,143.5,39.8,143.5z M42.2,121.8c0,1.3-1.1,2.4-2.4,2.4h-9.6c-1.3,0-2.4-1.1-2.4-2.4s1.1-2.4,2.4-2.4h9.6
		C41.2,119.4,42.2,120.5,42.2,121.8z M8.5,96.5c0-2,1.6-3.6,3.6-3.6s3.6,1.6,3.6,3.6v10.8c0,1.3,1.1,2.4,2.4,2.4h41
		c1.3,0,2.4,1.1,2.4,2.4c0,1.3-1.1,2.4-2.4,2.4H30.2c-4,0-7.2,3.2-7.2,7.2c0,1.8,0.7,3.6,1.9,4.9c-2.5,2.7-2.5,6.9,0,9.6
		c-1.8,1.9-2.4,4.7-1.4,7.2H8.5V96.5z"/>
	<path class="st0" d="M145.9,3.7h-33.8c-4,0-7.2,3.2-7.2,7.2c0,1.8,0.7,3.6,1.9,4.9c-2.5,2.7-2.5,6.9,0,9.6
		c-1.8,1.9-2.4,4.7-1.4,7.2H92.9c-4,0-7.2,3.2-7.2,7.2s3.2,7.2,7.2,7.2h38.6v8.4c0,4.7,3.8,8.4,8.4,8.4s8.4-3.8,8.4-8.4V6.1
		C148.3,4.7,147.3,3.7,145.9,3.7z M109.8,20.5c0-1.3,1.1-2.4,2.4-2.4h9.6c1.3,0,2.4,1.1,2.4,2.4c0,1.3-1.1,2.4-2.4,2.4h-9.6
		C110.8,23,109.8,21.9,109.8,20.5z M112.2,8.5h9.6c1.3,0,2.4,1.1,2.4,2.4s-1.1,2.4-2.4,2.4h-9.6c-1.3,0-2.4-1.1-2.4-2.4
		S110.8,8.5,112.2,8.5z M109.8,30.2c0-1.3,1.1-2.4,2.4-2.4h9.6c1.3,0,2.4,1.1,2.4,2.4s-1.1,2.4-2.4,2.4h-9.6
		C110.8,32.6,109.8,31.5,109.8,30.2z M143.5,55.5c0,2-1.6,3.6-3.6,3.6s-3.6-1.6-3.6-3.6V44.7c0-1.3-1.1-2.4-2.4-2.4h-41
		c-1.3,0-2.4-1.1-2.4-2.4c0-1.3,1.1-2.4,2.4-2.4h28.9c4,0,7.2-3.2,7.2-7.2c0-1.8-0.7-3.6-1.9-4.9c2.5-2.7,2.5-6.9,0-9.6
		c1.8-1.9,2.4-4.7,1.4-7.2h14.9V55.5z"/>
	<path class="st0" d="M76,88.1c6.7,0,12.1-5.4,12.1-12.1c0-6.7-5.4-12.1-12.1-12.1c-6.7,0-12.1,5.4-12.1,12.1
		C64,82.7,69.3,88,76,88.1z M76,68.8c4,0,7.2,3.2,7.2,7.2c0,4-3.2,7.2-7.2,7.2c-4,0-7.2-3.2-7.2-7.2C68.8,72,72,68.8,76,68.8z"/>
	<path class="st0" d="M130.1,73.6c-26.9-29.9-72.9-32.3-102.8-5.4c-1.9,1.7-3.7,3.5-5.4,5.4l-0.7,0.8c-0.8,0.9-0.8,2.3,0,3.2
		l0.7,0.8c26.9,29.9,72.9,32.3,102.8,5.4c1.9-1.7,3.7-3.5,5.4-5.4l0.7-0.8c0.8-0.9,0.8-2.3,0-3.2L130.1,73.6z M97.7,76
		c0,12-9.7,21.7-21.7,21.7S54.3,88,54.3,76S64,54.3,76,54.3C88,54.3,97.7,64,97.7,76z M26.2,76c8.5-9.2,19.4-15.8,31.5-19.2
		c-10.6,10-11,26.8-1,37.3c0.3,0.3,0.7,0.7,1,1C45.7,91.8,34.8,85.2,26.2,76z M94.3,95.2c10.6-10,11-26.8,1-37.3
		c-0.3-0.3-0.7-0.7-1-1c12.1,3.4,23,10,31.5,19.2C117.3,85.2,106.3,91.8,94.3,95.2z"/>
</g>
</svg>
