<?xml version="1.0" encoding="utf-8"?>
<!-- Generator: Adobe Illustrator 22.0.0, SVG Export Plug-In . SVG Version: 6.00 Build 0)  -->
<svg version="1.1"
	 id="Layer_1" xmlns:cc="http://creativecommons.org/ns#" xmlns:dc="http://purl.org/dc/elements/1.1/" xmlns:inkscape="http://www.inkscape.org/namespaces/inkscape" xmlns:rdf="http://www.w3.org/1999/02/22-rdf-syntax-ns#" xmlns:sodipodi="http://sodipodi.sourceforge.net/DTD/sodipodi-0.dtd" xmlns:svg="http://www.w3.org/2000/svg"
	 xmlns="http://www.w3.org/2000/svg" xmlns:xlink="http://www.w3.org/1999/xlink" x="0px" y="0px" viewBox="0 0 152 152"
	 style="enable-background:new 0 0 152 152;" xml:space="preserve">
<style type="text/css">
	.st0{fill:#153355;}
</style>
<g>
	<path class="st0" d="M86.1,6.8c-1.4,0-2.5,1.1-2.5,2.5v3.2H70.9c-1.4,0-2.5,1.1-2.5,2.5v11.1c0,7.5,6.1,13.6,13.6,13.6
		c1.1,0,2.1-0.1,3.1-0.4c2.3,6.1,7,10.9,13,13.4v9.2h-5c-0.1,0-0.2,0-0.3,0c-1.3,0.1-2.2,1.2-2.2,2.5v12.4c0,1.4,1.1,2.5,2.5,2.5
		h27.3c1.4,0,2.5-1.1,2.5-2.5V64.4c0-1.4-1.1-2.5-2.5-2.5h-5v-9c6.3-2.4,11.2-7.3,13.6-13.5c0.8,0.1,1.6,0.2,2.5,0.2
		c7.5,0,13.6-6.1,13.6-13.6V15c0-1.4-1.1-2.5-2.5-2.5h-12.1V9.3c0-1.4-1.1-2.5-2.5-2.5H86.1z M88.6,11.7h37.2V31
		c0,10.3-8.3,18.5-18.6,18.5c-10.3,0-18.6-8.2-18.6-18.5V11.7z M106.7,16.7c-1,0-1.8,0.6-2.2,1.4l-2.2,4.6l-5.1,0.8
		c-2,0.3-2.8,2.8-1.3,4.2l3.8,3.5l-0.8,5.1c-0.3,2,1.8,3.5,3.6,2.5l4.5-2.5l4.6,2.3c1.8,0.9,3.9-0.6,3.6-2.7l-1-5.1l3.6-3.7
		c1.4-1.5,0.6-3.9-1.5-4.2l-5.1-0.7l-2.4-4.6c-0.3-0.5-0.7-0.9-1.3-1.1C107.3,16.7,107,16.7,106.7,16.7z M73.3,17.4h10.3V31
		c0,1.2,0.1,2.4,0.3,3.5c-0.6,0.1-1.2,0.2-1.9,0.2c-4.9,0-8.7-3.8-8.7-8.7L73.3,17.4z M130.7,17.4h9.6v8.6c0,4.8-3.8,8.7-8.7,8.7
		c-0.4,0-0.8-0.1-1.2-0.1c0.2-1.2,0.3-2.4,0.3-3.6V17.4z M106.8,24.7l0.7,1.3c0.4,0.7,1.1,1.2,1.9,1.3l1.5,0.2l-1,1
		c-0.6,0.6-0.8,1.4-0.7,2.2l0.3,1.4l-1.3-0.7c-0.7-0.4-1.6-0.4-2.3,0l-1.3,0.7l0.2-1.4c0.1-0.8-0.2-1.6-0.7-2.2l-1.1-1l1.5-0.2
		c0.8-0.1,1.5-0.6,1.8-1.4L106.8,24.7z M103.1,54.1c1.3,0.2,2.7,0.4,4.1,0.4c1.1,0,2.3-0.1,3.4-0.3v7.7h-7.4L103.1,54.1z M73.2,63.2
		c-3.2,0-3.3,4.8-0.1,4.9l3.2,0.2l-9.5,12.6c-1.3-0.8-2.8-1.2-4.3-1.2c-3.7,0-6.9,2.4-8.1,5.6l-15.7-3.9c-0.9-3.8-4.3-6.7-8.4-6.7
		c-4.8,0-8.7,3.9-8.7,8.7c0,2,0.7,3.8,1.9,5.3l-8.3,14.5c-4.7,0.1-8.5,3.9-8.5,8.6c0,4.8,3.9,8.7,8.7,8.7s8.7-3.9,8.7-8.7
		c0-3-1.6-5.7-4-7.2l7.5-13c0.9,0.3,1.8,0.5,2.7,0.5c3.7,0,6.8-2.4,8.1-5.6l15.7,3.9c0.9,3.8,4.3,6.6,8.4,6.6c4.8,0,8.7-3.9,8.7-8.6
		c0-1.3-0.3-2.6-0.9-3.7l10-13.3l1,3c0.9,3.3,5.9,1.7,4.7-1.6l-2.2-6.6c0-1.1-0.8-2.1-1.9-2.4c-0.3-0.1-0.5-0.1-0.8-0.1
		c-0.1,0-0.1,0-0.2,0l-7.4-0.5C73.4,63.2,73.3,63.2,73.2,63.2z M95.6,66.9H118v7.4H95.6V66.9z M30.3,79.7c2.1,0,3.7,1.6,3.7,3.7
		c0,2.1-1.6,3.7-3.7,3.7c-2.1,0-3.7-1.6-3.7-3.7C26.6,81.3,28.2,79.7,30.3,79.7z M91,83.4c-1.4,0-2.5,1.1-2.5,2.5v17.3H58.8
		c-1.4,0-2.5,1.1-2.5,2.5v14.8H26.6c-1.4,0-2.5,1.1-2.5,2.5v19.8c0,1.4,1.1,2.5,2.5,2.5c32.2,0,64.4,0,96.6,0c1.4,0,2.5-1.1,2.5-2.5
		V85.9c0-1.4-1.1-2.5-2.5-2.5L91,83.4z M62.6,84.6c2.1,0,3.7,1.6,3.7,3.7c0,2.1-1.6,3.7-3.7,3.7c-2.1,0-3.7-1.6-3.7-3.7
		C58.8,86.3,60.5,84.6,62.6,84.6z M93.5,88.4h27.3v51.9H93.5C93.5,123,93.5,105.7,93.5,88.4z M15.5,108.1c2.1,0,3.7,1.6,3.7,3.7
		c0,2.1-1.6,3.7-3.7,3.7s-3.7-1.6-3.7-3.7C11.7,109.8,13.4,108.1,15.5,108.1z M61.3,108.1h27.3v32.1H61.3
		C61.3,129.5,61.3,118.8,61.3,108.1z M29.1,125.4h27.3v14.8H29.1V125.4z"/>
</g>
</svg>
