<?xml version="1.0" encoding="utf-8"?>
<!-- Generator: Adobe Illustrator 22.0.0, SVG Export Plug-In . SVG Version: 6.00 Build 0)  -->
<svg version="1.1" id="Layer_1" xmlns="http://www.w3.org/2000/svg" xmlns:xlink="http://www.w3.org/1999/xlink" x="0px" y="0px"
	 viewBox="0 0 152 152" style="enable-background:new 0 0 152 152;" xml:space="preserve">
<style type="text/css">
	.st0{fill:#153355;}
</style>
<g>
	<rect x="20.4" y="85.7" class="st0" width="4.8" height="4.8"/>
	<path class="st0" d="M5.9,124.3h9.7v24.2h4.8v-24.2H47v24.2h4.8v-24.2h9.7v7.2c0,1.3,1.1,2.4,2.4,2.4H76v9.7h-7.2v4.8h19.3v-4.8
		h-7.2V134h12.1c1.3,0,2.4-1.1,2.4-2.4v-19.3h50.7c1.3,0,2.4-1.1,2.4-2.4v-9.7c0-1.3-1.1-2.4-2.4-2.4h-4.8V18h4.8
		c1.3,0,2.4-1.1,2.4-2.4V5.9c0-1.3-1.1-2.4-2.4-2.4H47c-1.3,0-2.4,1.1-2.4,2.4v9.7c0,1.3,1.1,2.4,2.4,2.4h4.8v65.2v7.2h-9.7
		c-0.3,0-0.5,0.1-0.7,0.2l-4.2-15.3c-0.3-1.1-1.2-1.8-2.3-1.8h-29c-0.8,0-1.5,0.4-1.9,0.9c-0.5,0.6-0.6,1.4-0.4,2.1l7.2,26.3v6.9
		H5.9c-1.3,0-2.4,1.1-2.4,2.4v9.7C3.5,123.3,4.6,124.3,5.9,124.3z M66.3,121.9v-9.7v-2.4c0-2.7,2.2-4.8,4.8-4.8
		c2.7,0,4.8,2.2,4.8,4.8v19.3h-9.7V121.9z M90.5,129.2h-9.7v-19.3c0-2.7,2.2-4.8,4.8-4.8c2.7,0,4.8,2.2,4.8,4.8v2.4V129.2z
		 M143.7,107.4H95.3v-4.8h48.3V107.4z M95.3,97.7v-6.8l8,6.8H95.3z M49.4,8.3h94.2v4.8H49.4V8.3z M136.4,18v79.7h-20.6L128.8,85
		c0.9-0.8,1-2.2,0.3-3.1l-5.2-7.3c-0.4-0.5-1-0.9-1.6-1c-0.7-0.1-1.3,0.1-1.8,0.5L110,82.4L99.5,71.9c-0.5-0.5-1.1-0.7-1.7-0.7h-11
		c2.3-2.6,3.7-5.9,3.7-9.7C90.5,53.5,84,47,76,47s-14.5,6.5-14.5,14.5c0,3.7,1.4,7.1,3.7,9.7h-1.3c-2.7,0-5.2,0.9-7.2,2.5V18H136.4z
		 M66.3,61.5c0-5.3,4.3-9.7,9.7-9.7c5.3,0,9.7,4.3,9.7,9.7s-4.3,9.7-9.7,9.7C70.7,71.2,66.3,66.8,66.3,61.5z M44.6,95.3h9.7
		c1.3,0,2.4-1.1,2.4-2.4v-9.7c0-4,3.3-7.2,7.2-7.2h32.8l11.4,11.4c0.9,0.9,2.3,0.9,3.2,0.2l10.1-8.1L124,83l-14.3,13.9L94.5,83.8
		c-0.7-0.6-1.7-0.8-2.6-0.4c-0.9,0.4-1.4,1.2-1.4,2.2v14.5v1.3c-1.4-0.8-3.1-1.3-4.8-1.3c-2.9,0-5.5,1.3-7.2,3.3
		c-1.8-2-4.3-3.3-7.2-3.3c-1.8,0-3.4,0.5-4.8,1.3V85.7h-4.8v14.5H44.6V95.3z M15.5,101.9L9.1,78.4h24l6.8,24.8
		c0,0.1,0.1,0.1,0.1,0.2c0,0.1,0.1,0.2,0.1,0.3c0.1,0.2,0.2,0.3,0.3,0.5c0.1,0.1,0.1,0.2,0.2,0.2c0.1,0.1,0.3,0.2,0.5,0.3
		c0.1,0,0.2,0.1,0.2,0.1c0.3,0.1,0.6,0.2,0.9,0.2h19.3v4.8H15.6v-7.2C15.6,102.4,15.6,102.2,15.5,101.9z M8.3,114.7h4.8h48.3v4.8
		H8.3V114.7z"/>
	<rect x="61.5" y="22.8" class="st0" width="70.1" height="4.8"/>
	<rect x="61.5" y="32.5" class="st0" width="70.1" height="4.8"/>
	<rect x="95.3" y="42.2" class="st0" width="36.2" height="4.8"/>
	<rect x="95.3" y="51.8" class="st0" width="36.2" height="4.8"/>
	<rect x="95.3" y="61.5" class="st0" width="36.2" height="4.8"/>
	<path class="st0" d="M15.6,61.5h29c1,0,1.9-0.6,2.2-1.5c0.4-0.9,0.2-1.9-0.5-2.6l-9-9v-8.7c0-6.7-5.4-12.1-12.1-12.1h-9.7
		c-6.7,0-12.1,5.4-12.1,12.1v9.7C3.5,56.1,8.9,61.5,15.6,61.5z M8.3,39.8c0-4,3.3-7.2,7.2-7.2h9.7c4,0,7.2,3.3,7.2,7.2v9.7
		c0,0.6,0.3,1.3,0.7,1.7l5.5,5.5H15.6c-4,0-7.2-3.3-7.2-7.2V39.8z"/>
	<rect x="13.2" y="37.3" class="st0" width="14.5" height="4.8"/>
	<rect x="13.2" y="47" class="st0" width="14.5" height="4.8"/>
</g>
</svg>
